<?xml version="1.0"?>
<svg width="200" height="222" xmlns="http://www.w3.org/2000/svg" xmlns:svg="http://www.w3.org/2000/svg">

 <g class="layer" display="inline">
  <title>Layer 1</title>
  <path d="m697,724c-35,-33 -63,-51 -70,-47c-7,4 -5,-4 4,-17c17,-26 42,-40 34,-18c-3,7 12,30 32,50l38,37l-3,-89c-3,-54 0,-90 6,-90c12,0 34,25 27,32c-3,2 1,5 9,5c8,0 34,17 59,39c33,29 42,42 35,52c-14,16 -28,15 -28,-2c0,-7 -16,-26 -36,-41l-36,-27l4,86c2,53 -1,86 -7,86c-5,-1 -36,-25 -68,-56z" fill="#000000" id="svg_53"/>
  <path d="m1795,273c-4,-10 -18,-49 -32,-88c-14,-38 -33,-75 -42,-82c-14,-11 -10,-12 21,-13c34,0 37,2 35,27c-2,21 4,28 26,34c25,7 28,5 34,-22c5,-26 10,-29 41,-29c31,0 33,2 20,13c-9,6 -30,46 -48,87c-36,87 -45,98 -55,73zm11,-90c-10,-10 -19,5 -10,18c6,11 8,11 12,0c2,-7 1,-15 -2,-18z" fill="#000000" id="svg_62"/>
  <path d="m8627,1404c-13,-13 5,-24 37,-24c59,0 60,-6 66,-299c6,-286 9,-302 64,-374c14,-19 49,-46 78,-62c44,-24 66,-29 148,-33c129,-6 184,12 256,82c79,77 86,108 92,406c2,135 8,253 13,262c5,9 24,18 42,20c17,2 31,8 30,13c-2,6 -56,10 -138,10c-82,0 -136,-4 -136,-10c-1,-5 15,-13 36,-16c20,-3 41,-12 46,-20c13,-20 11,-478 -2,-539c-25,-119 -152,-183 -266,-135c-48,20 -70,41 -97,90c-20,38 -21,57 -24,308c-4,290 -3,297 49,297c19,0 29,5 29,15c0,13 -24,15 -158,15c-87,0 -162,-3 -165,-6z" fill="#000000" id="svg_87"/>
  <path d="m6927,1404c-12,-12 4,-24 31,-24c57,0 57,2 63,-277c7,-303 15,-339 89,-414c64,-64 123,-83 248,-77c141,6 217,50 269,156c28,57 28,57 33,318c6,280 7,290 57,296c15,2 28,9 31,16c3,9 -29,12 -137,12c-119,0 -141,-2 -141,-15c0,-10 10,-15 34,-15c57,0 61,-11 65,-231c5,-328 -17,-417 -116,-461c-61,-27 -147,-22 -197,12c-80,56 -99,145 -94,443c3,220 6,233 56,239c15,2 27,8 27,13c0,11 -307,20 -318,9z" id="svg_88"/>
  <g id="svg_89" transform="translate(-1) translate(1) translate(1) translate(1) translate(1) translate(1) translate(1) translate(1) translate(1) translate(1) translate(1) translate(1) translate(1) translate(1)">
   <path d="m1595,4443c-166,-21 -317,-68 -480,-149c-441,-217 -796,-654 -980,-1205c-105,-316 -140,-567 -132,-942c5,-272 26,-425 91,-660c222,-802 800,-1382 1474,-1478c120,-17 403,-6 512,19c304,71 594,239 813,472c366,388 583,888 638,1474c16,172 6,491 -20,661c-82,537 -301,993 -641,1334c-256,258 -558,417 -885,466c-90,13 -313,18 -390,8zm443,-73c308,-62 607,-234 833,-478c658,-711 809,-1889 359,-2807c-329,-671 -897,-1058 -1515,-1032c-395,17 -733,179 -1040,499c-548,570 -758,1486 -540,2344c45,175 91,298 180,479c282,576 744,938 1295,1015c99,14 313,4 428,-20z" fill="#000000" id="svg_2" transform="matrix(0.04996, 0, 0, -0.049888, 0, 222)"/>
   <path d="m1674,4327c15,-11 17,-26 14,-100l-3,-87l38,0c35,0 37,1 23,16c-20,20 -23,169 -3,177c6,3 -10,6 -37,6c-43,1 -47,-1 -32,-12z" fill="#000000" id="svg_3" transform="matrix(0.04996, 0, 0, -0.049888, 0, 222)"/>
   <path d="m1821,4314c-27,-22 -31,-32 -31,-74c0,-69 29,-101 98,-108c47,-4 54,-2 81,25c54,54 49,141 -9,170c-43,22 -105,16 -139,-13zm118,-20c36,-46 21,-129 -26,-140c-52,-13 -93,48 -78,116c12,54 70,67 104,24z" fill="#000000" id="svg_4" transform="matrix(0.04996, 0, 0, -0.049888, 0, 222)"/>
   <path d="m1514,4320c-32,-13 -64,-59 -64,-92c0,-65 45,-108 115,-108c55,0 85,16 85,45c0,29 -15,34 -23,6c-6,-25 -55,-33 -90,-15c-43,23 -61,90 -34,127c18,26 79,33 100,12c16,-15 17,-15 17,9c0,24 -3,26 -42,25c-24,0 -53,-4 -64,-9z" fill="#000000" id="svg_5" transform="matrix(0.04996, 0, 0, -0.049888, 0, 222)"/>
   <path d="m2087,4303c-2,-5 -17,-45 -31,-90c-15,-46 -33,-83 -39,-83c-15,-1 10,-15 43,-25c21,-7 23,-6 12,7c-10,12 -9,26 5,73l18,57l43,-89c40,-80 48,-90 86,-106c50,-21 57,-21 50,-4c-3,8 2,20 11,27c12,10 21,10 41,1c23,-10 25,-16 20,-44c-6,-32 -4,-34 75,-85c64,-42 84,-50 95,-41c21,17 17,27 -9,22c-13,-3 -29,2 -36,10c-10,13 -5,27 31,81c24,36 50,66 58,66c11,1 10,4 -5,16c-39,30 -53,35 -49,16c6,-21 -82,-145 -99,-139c-9,3 -11,36 -9,116c1,61 0,111 -4,111c-3,0 -39,-29 -80,-65c-67,-59 -124,-85 -111,-52c2,6 15,45 28,85c15,47 28,72 38,72c22,0 1,16 -31,24c-22,5 -26,3 -22,-9c7,-17 -15,-115 -25,-115c-4,0 -25,36 -46,81c-40,82 -50,96 -58,82zm267,-190c-4,-14 -11,-20 -20,-16c-13,5 -12,8 2,24c21,23 25,21 18,-8z" fill="#000000" id="svg_6" transform="matrix(0.04996, 0, 0, -0.049888, 0, 222)"/>
   <path d="m1300,4181c0,-49 -5,-102 -10,-117c-6,-15 -9,-28 -8,-30c2,-1 19,5 38,13c26,12 30,17 18,20c-28,7 -22,48 8,62c22,10 30,9 45,-5c11,-9 19,-23 19,-30c0,-10 7,-11 33,-2c42,14 57,28 30,28c-14,0 -46,27 -90,75c-38,41 -73,75 -76,75c-4,0 -7,-40 -7,-89zm50,-23c0,-5 -4,-8 -10,-8c-5,0 -10,10 -10,23c0,18 2,19 10,7c5,-8 10,-18 10,-22z" fill="#000000" id="svg_7" transform="matrix(0.04996, 0, 0, -0.049888, 0, 222)"/>
   <path d="m1151,4193c-24,-16 -24,-17 -4,-24c11,-4 32,-28 47,-54c15,-28 20,-45 12,-42c-41,16 -178,49 -183,44c-3,-3 15,-41 40,-84c32,-56 42,-82 35,-90c-14,-18 -3,-16 35,4c24,13 28,18 15,21c-9,2 -31,26 -48,53c-25,41 -27,50 -13,45c105,-29 176,-47 179,-43c2,2 -16,41 -41,86c-25,45 -43,86 -40,92c9,14 -8,11 -34,-8z" fill="#000000" id="svg_8" transform="matrix(0.04996, 0, 0, -0.049888, 0, 222)"/>
   <path d="m1610,4095c-500,-79 -935,-507 -1135,-1119c-188,-573 -145,-1261 110,-1783c276,-567 734,-885 1239,-860c286,14 539,128 768,345c308,294 509,721 579,1232c17,121 17,485 1,610c-20,149 -59,329 -96,441c-253,772 -847,1231 -1466,1134zm347,-60c219,-42 425,-151 604,-322c79,-76 202,-226 193,-236c-3,-3 -23,2 -45,11c-38,15 -45,14 -97,-3c-31,-10 -62,-23 -69,-27c-7,-6 -10,-37 -8,-86c1,-51 -3,-86 -12,-105c-10,-21 -11,-32 -3,-42c6,-7 14,-32 18,-56c7,-40 10,-44 41,-49c32,-5 33,-6 15,-22c-11,-9 -31,-20 -46,-23c-16,-4 -28,-11 -28,-15c0,-4 -11,-10 -25,-12c-20,-4 -26,0 -35,26c-15,42 -66,93 -109,107l-35,12l37,18c43,22 54,37 33,45c-13,5 -282,-68 -309,-84c-5,-2 -4,6 3,18c6,12 26,28 44,35c17,7 40,23 51,35c11,12 38,31 60,42c52,26 85,57 85,80c0,22 0,22 -52,-1c-109,-48 -133,-62 -213,-123c-16,-12 -25,-16 -19,-8c177,231 199,265 167,265c-5,0 -61,-48 -124,-108c-63,-59 -115,-103 -117,-97c-2,6 10,32 27,59c17,26 31,54 31,62c0,8 16,39 35,69c33,51 44,93 27,104c-11,7 -100,-98 -117,-138c-17,-40 -65,-114 -65,-99c0,5 9,58 20,118c24,132 26,175 5,175c-10,0 -29,-46 -61,-147c-26,-82 -51,-152 -55,-157c-9,-10 -15,119 -10,208c4,66 -7,116 -24,116c-9,0 -17,-15 -20,-37c-4,-21 -11,-51 -16,-67c-5,-16 -9,-70 -9,-120l-1,-91l-47,145c-35,104 -53,146 -65,148c-22,5 -22,-5 8,-176c14,-78 25,-145 25,-148c0,-17 -25,15 -43,55c-11,25 -30,60 -42,76c-13,17 -28,46 -34,66c-14,45 -57,87 -72,72c-8,-8 -6,-20 5,-41c9,-17 16,-41 16,-54c0,-13 20,-62 44,-111l44,-87l-110,105c-102,98 -127,114 -135,89c-2,-5 33,-56 77,-114c44,-58 90,-117 101,-133l20,-27l-28,11c-15,5 -39,21 -53,34c-14,12 -43,32 -66,43c-22,11 -46,28 -54,37c-17,20 -63,45 -85,45c-24,0 -17,-27 13,-48c15,-11 34,-32 42,-47c8,-15 30,-35 50,-45c19,-10 49,-30 65,-44c17,-14 34,-26 39,-26c5,0 7,-2 4,-5c-3,-3 -67,13 -142,36c-133,39 -181,44 -157,16c6,-8 72,-42 146,-77c88,-41 132,-67 126,-73c-6,-6 -25,-6 -53,1c-24,7 -90,13 -148,14c-87,3 -105,0 -105,-12c0,-8 13,-17 30,-20c17,-4 41,-13 55,-20c14,-7 72,-18 130,-24l105,-12l-138,-27c-76,-15 -146,-27 -155,-27c-9,0 -30,20 -45,45c-18,28 -36,45 -48,45c-10,0 -19,4 -19,9c0,5 -12,12 -27,16c-55,13 -70,42 -25,47c24,3 28,8 33,45c3,23 11,48 18,56c10,13 10,21 -2,44c-9,19 -13,54 -12,105c2,49 -1,80 -8,86c-7,5 -38,17 -70,27c-54,16 -62,16 -98,2c-21,-8 -41,-12 -44,-7c-8,13 103,146 196,236c189,181 401,290 639,327c65,11 255,6 327,-8zm-184,-603c-7,-43 16,-154 31,-149c6,2 28,50 48,108c20,57 37,101 37,96c1,-4 -6,-50 -14,-103c-9,-53 -13,-99 -10,-102c18,-18 56,35 118,164c14,28 31,55 38,60c11,6 12,5 2,-7c-7,-9 -20,-35 -28,-59c-9,-24 -22,-51 -30,-60c-23,-25 -56,-133 -44,-145c6,-6 34,14 77,56c105,102 111,101 32,-4c-40,-54 -71,-100 -68,-102c9,-9 82,27 116,56c18,16 36,29 41,29c5,0 25,14 46,30c21,17 43,30 49,30c6,-1 -1,-8 -16,-16c-16,-8 -28,-19 -28,-24c0,-5 -18,-19 -41,-30c-47,-25 -132,-111 -120,-123c5,-5 55,5 112,22c57,16 105,29 106,27c2,-2 -37,-21 -86,-44c-118,-54 -129,-74 -38,-74l42,0l-40,-19c-22,-10 -46,-19 -53,-19c-29,0 -3,-25 38,-37c67,-20 72,-33 13,-33c-60,0 -73,-16 -34,-42c25,-17 23,-18 -111,-18c-75,0 -139,3 -141,8c-2,4 -7,24 -11,45c-7,36 -6,38 13,28c22,-12 106,-14 134,-2c18,6 18,7 0,23c-44,40 -103,48 -133,18c-15,-15 -20,-17 -20,-5c0,8 11,22 25,31c31,20 107,15 134,-10c22,-20 31,-20 31,-1c0,23 -54,45 -113,45c-44,0 -58,-4 -77,-25c-20,-22 -22,-31 -18,-90c5,-62 5,-65 -17,-65c-21,0 -22,3 -14,43c11,56 1,104 -24,122c-33,23 -128,20 -161,-6c-14,-11 -23,-25 -20,-30c4,-6 14,-3 25,7c27,24 103,30 134,10c14,-9 25,-21 25,-26c0,-6 -11,-3 -25,6c-32,21 -84,12 -114,-20c-19,-21 -20,-24 -6,-30c26,-10 104,-7 126,4c21,12 23,5 13,-49l-6,-31l-132,0c-122,1 -129,2 -103,16c15,8 27,22 27,30c0,14 -15,15 -122,10l-123,-6l93,20c51,10 101,22 112,25c33,11 23,34 -17,40c-21,3 -67,10 -103,15c-112,17 -117,19 -45,14c78,-5 198,-5 204,1c13,14 -21,37 -117,80c-61,27 -110,50 -109,52c2,1 54,-13 117,-32c63,-19 116,-35 118,-35c2,0 2,10 0,22c-2,12 -19,32 -38,44c-19,13 -48,34 -65,47c-16,13 -45,32 -62,41c-18,9 -33,22 -33,28c0,6 8,4 18,-5c10,-10 24,-17 30,-17c6,0 26,-13 45,-29c26,-23 136,-81 153,-81c18,0 -9,49 -77,138l-82,107l96,-94c54,-53 100,-91 106,-87c14,9 4,52 -19,86c-9,14 -22,40 -28,58c-6,18 -20,45 -32,59c-11,14 -20,33 -20,42c1,9 7,2 14,-15c8,-18 19,-35 26,-39c6,-4 20,-27 31,-51c19,-47 76,-124 91,-124c12,0 10,55 -7,150c-8,47 -15,87 -14,90c0,3 17,-42 37,-99c56,-158 71,-147 73,54c2,100 3,111 9,65c5,-30 6,-70 3,-88zm-856,22c-3,-3 -12,-4 -19,-1c-8,3 -5,6 6,6c11,1 17,-2 13,-5zm1746,-1c-7,-2 -19,-2 -25,0c-7,3 -2,5 12,5c14,0 19,-2 13,-5zm-1769,-49c3,-8 2,-12 -4,-9c-6,3 -10,10 -10,16c0,14 7,11 14,-7zm-10,-31c23,-27 23,-27 30,-5c10,31 61,31 70,0c9,-37 7,-48 -9,-42c-9,4 -29,1 -46,-6c-28,-12 -29,-14 -13,-31c21,-23 40,-24 52,-4c7,13 10,11 20,-11c10,-21 10,-32 -2,-55c-8,-16 -12,-38 -9,-50c6,-20 4,-21 -32,-15l-38,7l7,-32c3,-18 15,-43 26,-54c24,-26 26,-81 5,-132l-15,-36l-32,25c-18,14 -50,46 -72,72c-36,42 -38,48 -27,70c12,22 15,42 12,96c-2,43 3,70 13,70c5,0 1,9 -8,19c-16,18 -16,20 8,44c17,18 23,31 19,47c-4,16 -3,21 5,16c7,-4 12,-15 12,-24c0,-11 3,-13 10,-6c12,12 3,44 -11,44c-5,0 -9,5 -9,10c0,16 10,12 34,-17zm1800,1c-13,-19 -14,-28 -5,-37c8,-8 11,-7 11,5c0,9 5,20 11,24c8,4 9,-4 4,-27c-4,-19 -4,-31 0,-27c4,4 17,-5 28,-19c19,-24 19,-27 5,-36c-12,-8 -14,-16 -6,-39c6,-17 15,-25 21,-22c8,4 7,2 0,-7c-16,-17 -17,-101 -1,-117c8,-8 5,-21 -17,-51c-38,-56 -44,-59 -95,-52c-44,6 -45,7 -48,44c-3,29 3,45 22,68c38,45 35,69 -10,69c-34,0 -35,1 -29,30c4,17 2,30 -3,30c-17,0 -21,42 -7,69c11,19 14,21 15,9c0,-24 32,-23 54,1c16,17 15,19 -13,31c-17,7 -37,10 -46,6c-16,-6 -18,5 -9,42c8,30 59,32 67,2c6,-24 33,-17 42,11c4,10 11,19 16,19c5,0 2,-11 -7,-26zm-1977,-84c-2,-59 -1,-62 35,-93c71,-62 61,-112 -24,-119c-144,-12 -202,-119 -210,-389c-4,-125 2,-133 90,-123c45,5 63,3 58,-4c-3,-6 -19,-53 -34,-105c-33,-109 -35,-198 -9,-457c11,-111 13,-187 7,-265c-9,-135 -50,-362 -62,-342c-35,64 -104,343 -129,527c-17,122 -17,477 0,600c29,219 97,466 175,634c51,111 95,196 101,196c2,0 3,-27 2,-60zm2245,-158c123,-288 177,-564 178,-909c0,-278 -29,-476 -107,-726c-20,-64 -37,-116 -39,-114c-1,1 -14,61 -29,132c-35,176 -41,323 -21,511c24,225 22,328 -10,433c-15,47 -33,98 -40,112c-11,23 -11,29 1,39c7,6 29,55 47,108c28,83 32,111 33,196l0,99l-37,30c-29,23 -51,31 -93,35c-89,7 -97,51 -23,124c39,38 39,39 33,96l-6,57l32,-55c18,-30 54,-106 81,-168zm-2164,153c0,-16 -2,-15 -8,5c-11,34 -11,60 0,35c5,-11 8,-29 8,-40zm17,45c3,-5 1,-10 -4,-10c-6,0 -11,5 -11,10c0,6 2,10 4,10c3,0 8,-4 11,-10zm1955,0c0,-5 -5,-10 -11,-10c-5,0 -7,5 -4,10c3,6 8,10 11,10c2,0 4,-4 4,-10zm14,-24c-3,-15 -8,-25 -11,-23c-2,3 -1,17 3,31c3,15 8,25 11,23c2,-3 1,-17 -3,-31zm-451,-153c-13,-2 -33,-2 -45,0c-13,2 -3,4 22,4c25,0 35,-2 23,-4zm52,-13c3,-6 -1,-7 -9,-4c-18,7 -21,14 -7,14c6,0 13,-4 16,-10zm-163,-23c-11,-12 -25,-33 -31,-47c-6,-16 -10,-19 -10,-8c-1,16 44,78 57,78c3,0 -4,-10 -16,-23zm-52,-7c0,-5 -8,-10 -17,-10c-15,0 -16,2 -3,10c19,12 20,12 20,0zm124,-15c-12,-19 -14,-36 -9,-77c4,-29 12,-61 17,-71c14,-26 3,-32 -32,-17c-36,15 -60,55 -60,100c0,37 47,90 79,90c21,0 21,-1 5,-25zm89,0c14,-14 28,-37 31,-50c7,-29 -9,-75 -26,-75c-28,0 -39,19 -42,66c-1,27 -6,57 -10,67c-12,26 17,21 47,-8zm55,-20c-3,-3 -9,2 -12,12c-6,14 -5,15 5,6c7,-7 10,-15 7,-18zm-121,-27c-3,-8 -6,-5 -6,6c-1,11 2,17 5,13c3,-3 4,-12 1,-19zm130,-25c-3,-10 -5,-4 -5,12c0,17 2,24 5,18c2,-7 2,-21 0,-30zm-1726,-10c20,-62 52,-129 56,-117c2,6 -8,41 -22,78c-28,74 -27,101 1,42c23,-48 37,-47 18,2l-15,37l28,-35c59,-74 105,-118 135,-131c27,-11 32,-10 44,6c8,10 17,34 20,53c4,18 13,36 20,39c8,3 14,14 14,24c0,10 4,19 8,19c4,0 7,-17 5,-37l-3,-38l14,35l14,35l1,-35c1,-20 8,-60 17,-90c8,-30 17,-64 20,-76c4,-14 -5,-33 -29,-61c-25,-30 -36,-55 -41,-92c-4,-28 -11,-51 -16,-51c-5,0 -7,14 -3,30c3,19 1,30 -6,30c-6,0 -11,-13 -11,-30c0,-16 -4,-30 -10,-30c-5,0 -10,10 -10,23c0,15 -3,18 -8,9c-6,-9 -22,12 -49,65l-41,78l-91,40l-91,40l0,45c0,25 -3,56 -6,70c-6,25 -6,25 10,5l17,-20l-4,20c-3,11 -8,28 -12,38c-4,9 -3,17 3,17c6,0 16,-17 23,-37zm2079,11c-17,-43 -10,-51 11,-11c11,20 24,37 29,37c16,0 12,-13 -18,-61c-48,-75 -54,-111 -8,-42c14,20 32,38 40,39c14,2 14,-2 0,-34c-8,-20 -17,-69 -21,-109c-3,-40 -8,-73 -11,-73c-3,0 -47,26 -98,57l-93,57l30,15c17,8 56,45 87,83c31,37 57,68 59,68c1,0 -2,-12 -7,-26zm-623,-16c-3,-7 -5,-2 -5,12c0,14 2,19 5,13c2,-7 2,-19 0,-25zm-27,12c0,-5 -7,-10 -16,-10c-8,0 -12,5 -9,10c3,6 10,10 16,10c5,0 9,-4 9,-10zm367,-12c-3,-8 -6,-5 -6,6c-1,11 2,17 5,13c3,-3 4,-12 1,-19zm30,0c-3,-8 -6,-5 -6,6c-1,11 2,17 5,13c3,-3 4,-12 1,-19zm-1893,-14c8,-20 8,-89 0,-147c-6,-43 -9,-46 -30,-41c-27,7 -29,0 -10,-35c10,-18 11,-32 3,-58c-15,-48 -2,-56 103,-61c77,-4 94,-2 110,13c11,10 20,14 20,8c0,-6 11,-8 24,-6c15,3 25,-1 30,-12c10,-27 -2,-35 -52,-34c-26,1 -67,-4 -92,-9c-25,-6 -82,-14 -127,-18c-81,-6 -82,-6 -88,18c-9,37 12,247 30,303c29,86 63,120 79,79zm1034,9c-10,-2 -26,-2 -35,0c-10,3 -2,5 17,5c19,0 27,-2 18,-5zm210,0c-10,-2 -26,-2 -35,0c-10,3 -2,5 17,5c19,0 27,-2 18,-5zm1052,-14c7,-13 9,-44 5,-87c-8,-75 -60,-249 -80,-271c-21,-21 -79,21 -203,145c-83,85 -108,104 -132,104c-16,0 -32,5 -35,10c-14,22 70,-1 119,-33c65,-43 216,-137 220,-137c2,0 7,33 10,73c17,170 62,261 96,196zm-580,-44c16,-4 54,1 88,10c80,23 126,18 130,-14c4,-24 3,-24 -67,-18c-43,5 -72,3 -76,-3c-3,-5 -22,-10 -41,-10c-36,0 -84,36 -84,62c0,8 4,7 10,-4c6,-9 23,-19 40,-23zm-1220,-129c0,-61 -2,-67 -15,-56c-11,9 -14,22 -10,42c4,18 1,42 -8,61c-9,18 -18,50 -22,72l-7,40l31,-45c27,-40 31,-53 31,-114zm1510,124c0,-5 -9,-10 -21,-10c-11,0 -17,5 -14,10c3,6 13,10 21,10c8,0 14,-4 14,-10zm-1220,-25c-10,-12 -39,-15 -141,-15c-150,0 -187,18 -47,23c51,1 117,4 147,5c46,2 52,0 41,-13zm740,7c0,-5 -13,-7 -30,-4c-16,2 -30,6 -30,8c0,2 14,4 30,4c17,0 30,-4 30,-8zm180,-699l0,-638l-24,-66c-12,-36 -44,-99 -70,-139c-55,-85 -189,-226 -205,-216c-6,4 -11,1 -11,-8c0,-18 -102,-92 -178,-130c-62,-31 -111,-35 -164,-13c-80,34 -187,113 -283,211c-103,105 -148,169 -194,278l-26,63l-3,648l-3,647l581,0l580,0l0,-637zm80,598c0,-22 -6,-44 -15,-51c-13,-11 -15,-6 -15,39c0,39 4,51 15,51c11,0 15,-11 15,-39zm217,-68c111,-114 119,-133 56,-133c-39,0 -43,2 -43,26c0,14 -4,23 -10,19c-5,-3 -10,-15 -10,-26c0,-12 -7,-19 -20,-19c-13,0 -20,7 -20,20c0,11 -5,20 -11,20c-6,0 -9,-9 -6,-20c3,-11 1,-20 -4,-20c-5,0 -9,11 -9,24c0,14 -4,28 -10,31c-6,4 -10,-6 -10,-24c0,-16 -4,-33 -10,-36c-6,-4 -10,14 -10,45c0,44 -5,58 -35,94c-20,25 -35,54 -35,70c0,24 3,26 45,26c45,0 48,-3 142,-97zm-1871,51c70,-32 70,-32 58,-44c-9,-9 -131,15 -147,30c-11,9 3,40 18,40c7,0 39,-12 71,-26zm28,-91c10,-26 -4,-33 -64,-33c-59,0 -60,0 -80,40c-11,21 -20,41 -20,43c0,12 159,-37 164,-50zm1673,19c11,-15 24,-47 28,-69c5,-34 2,-50 -18,-85c-30,-52 -78,-216 -71,-243c3,-11 1,-38 -5,-60c-6,-29 -9,26 -10,199c-1,233 0,240 21,263c27,29 30,29 55,-5zm-1359,2c22,-15 22,-19 22,-241c0,-125 -2,-224 -5,-221c-3,3 -6,27 -6,54c-1,59 -44,216 -72,262c-23,39 -18,113 10,144c20,22 23,22 51,2zm1672,-110c0,-2 -7,-4 -15,-4c-8,0 -15,4 -15,10c0,5 7,7 15,4c8,-4 15,-8 15,-10zm-1857,-76c-9,-16 -34,-7 -42,15c-7,16 -5,25 7,35c14,10 18,8 28,-15c6,-16 9,-31 7,-35zm-89,36c16,-16 21,-34 10,-34c-18,0 -84,24 -84,31c0,7 21,15 47,18c6,0 19,-6 27,-15zm1786,-8c0,-14 5,-28 10,-31c6,-4 10,7 10,24c0,30 2,31 44,31c41,0 44,-2 50,-31c3,-17 3,-42 0,-55c-4,-15 -2,-24 5,-24c7,0 11,20 11,50c0,46 2,50 24,50c19,0 29,-13 56,-67c19,-37 35,-62 37,-56c2,6 -5,30 -16,52c-22,42 -30,90 -11,61c15,-23 72,-211 66,-217c-10,-10 -36,19 -36,38c0,11 -5,19 -11,19c-7,0 -9,-9 -5,-24c5,-20 1,-25 -20,-30c-33,-9 -44,-1 -44,33c0,43 -11,91 -22,91c-5,0 -6,-22 -2,-50c4,-34 3,-55 -6,-65c-21,-25 -30,-17 -30,26c0,24 -4,38 -10,34c-5,-3 -10,-22 -10,-41c0,-33 -1,-34 -40,-34l-40,0l-2,43c-1,23 -1,52 0,65c0,12 -3,22 -9,22c-5,0 -9,-27 -9,-60l0,-60l-25,10c-20,8 -27,6 -31,-5c-13,-34 -24,-11 -25,53c0,70 -17,63 -18,-8c-1,-33 -3,-35 -36,-36c-28,0 -35,3 -30,14c3,8 13,44 22,79c17,69 52,127 53,88c0,-12 -5,-26 -11,-32c-7,-7 -7,-13 0,-17c6,-4 15,11 22,34c9,28 18,40 31,40c10,0 18,-7 19,-17c0,-14 3,-13 11,5c14,29 28,28 28,-2zm-1634,-3c8,-11 13,-13 14,-5c0,21 19,13 34,-16c8,-15 22,-56 30,-90c9,-34 19,-69 23,-79c6,-16 5,-16 -10,-4c-10,8 -27,11 -42,7c-24,-6 -25,-5 -25,49c0,30 -4,55 -9,55c-5,0 -6,-29 -3,-65c5,-66 -6,-85 -27,-47c-6,9 -11,12 -11,7c0,-6 -9,-11 -20,-11c-18,0 -20,7 -20,58c0,78 -18,74 -22,-4l-3,-63l-37,-3c-36,-3 -38,-1 -38,25c0,15 -5,35 -10,43c-7,11 -10,3 -10,-28c0,-36 -3,-43 -17,-40c-15,3 -18,14 -17,66c1,60 -7,79 -20,46c-3,-9 -6,-32 -6,-52c0,-51 -12,-66 -45,-58c-24,6 -26,10 -22,42c3,19 16,60 28,90c27,61 18,59 131,28c83,-22 118,-12 118,36c0,33 16,39 36,13zm-286,-22c0,-10 -7,-36 -16,-57c-9,-22 -22,-59 -29,-84c-7,-27 -18,-46 -27,-48c-14,-3 -12,11 12,88c16,50 31,98 34,106c8,20 26,17 26,-5zm360,-255c0,-36 5,-68 10,-71c6,-4 10,18 11,57l1,63l13,-65c17,-87 25,-205 29,-440c3,-171 2,-188 -8,-138c-16,73 -31,89 -22,23c32,-244 47,-595 26,-595c-5,0 -10,20 -10,45c0,25 -4,45 -10,45c-5,0 -10,-23 -10,-51l0,-51l-29,5c-21,4 -37,0 -54,-13l-24,-19l-7,67c-3,37 -6,148 -7,247c0,177 -7,233 -23,206c-5,-7 -6,-38 -2,-69c3,-32 8,-154 10,-272c3,-205 3,-210 -8,-107c-6,60 -14,106 -17,102c-4,-3 -4,-53 -1,-110l5,-104l-37,2l-36,2l0,152c0,103 -4,154 -11,159c-9,5 -10,-33 -5,-148c5,-102 4,-158 -2,-162c-13,-8 -104,22 -114,38c-4,6 -8,31 -8,56c0,33 -3,41 -10,30c-6,-8 -8,-37 -4,-65c7,-61 -1,-55 -49,35l-35,65l33,163c19,89 39,221 45,293c13,155 3,552 -13,523c-6,-11 -8,-89 -4,-208c8,-234 -5,-408 -44,-589c-16,-76 -29,-141 -29,-145c0,-4 -9,11 -19,33c-18,41 -18,42 11,180c38,185 47,409 24,607c-26,226 -22,268 31,268c20,0 23,-5 23,-34c0,-19 5,-38 10,-41c6,-4 10,8 10,28c0,27 5,36 23,41c44,12 47,8 49,-56l2,-63l3,55c3,30 8,57 13,60c6,3 26,4 45,2c33,-4 35,-6 35,-44c0,-23 4,-37 10,-33c6,3 10,22 10,41c0,28 5,36 25,44c51,19 55,9 55,-130c0,-134 8,-220 20,-220c4,0 5,75 2,166l-5,167l24,18c41,32 49,25 49,-45zm1459,45l24,-19l-6,-168c-5,-118 -4,-165 4,-157c6,6 12,79 15,174c2,90 8,167 13,172c5,5 27,3 50,-4l41,-12l1,-111c1,-120 11,-107 24,32c7,77 16,95 42,85c9,-3 13,-23 13,-59c0,-72 17,-70 19,2c0,31 3,60 6,64c3,5 19,3 35,-3c30,-11 30,-12 29,-87c0,-41 -4,-124 -9,-185c-11,-141 9,-406 50,-649c16,-98 32,-181 35,-184c2,-3 -14,-41 -38,-85l-42,-79l-3,61c-4,75 -22,81 -22,8l0,-54l-51,-16c-28,-10 -56,-17 -62,-17c-7,0 -8,52 -4,160c3,88 2,160 -2,160c-14,0 -21,-58 -21,-184l0,-122l-29,-11c-17,-6 -32,-9 -34,-7c-2,3 -3,57 -1,122c3,78 1,110 -5,97c-5,-11 -10,-57 -10,-102c-1,-45 -6,-85 -11,-88c-7,-4 -9,19 -6,72c13,196 17,478 6,467c-7,-7 -13,-103 -17,-258c-3,-136 -10,-249 -15,-252c-5,-3 -17,1 -26,9c-11,10 -27,13 -44,10c-27,-5 -28,-4 -28,40c0,25 -4,49 -10,52c-6,4 -10,-12 -10,-39c0,-68 -17,-56 -25,17c-7,65 19,430 35,501c13,56 13,83 -1,69c-19,-19 -39,-186 -45,-378c-4,-104 -9,-205 -13,-223c-5,-29 -8,-31 -24,-20c-17,12 -17,16 -2,57c8,25 15,77 15,120c0,43 9,149 19,237c11,87 22,258 26,379c7,225 25,389 44,408c8,8 11,-8 11,-57c0,-42 4,-65 10,-61c6,3 10,35 10,71c0,35 3,64 8,64c4,0 18,-9 31,-19zm392,-28c8,-21 6,-82 -11,-245c-25,-255 -22,-340 21,-576c28,-150 29,-166 16,-200c-18,-44 -17,-46 -51,143c-36,197 -47,375 -44,659l3,246l28,0c21,0 30,-7 38,-27zm-1750,-943c1,-67 8,-126 19,-162c17,-56 17,-56 -5,-66l-22,-10l-6,176c-4,98 -9,209 -11,247l-5,70l14,-75c8,-41 15,-122 16,-180zm1173,-27c-2,-56 -10,-117 -18,-142c-21,-58 -21,-58 15,-80c28,-17 29,-19 9,-24c-16,-4 -21,-12 -18,-29c3,-22 6,-23 123,-26c94,-2 123,-6 138,-19c15,-14 22,-15 37,-5c11,6 32,9 47,6c16,-3 48,1 73,10c55,19 60,19 60,3c0,-26 -161,-226 -253,-314c-459,-439 -1054,-450 -1541,-29c-100,87 -298,337 -277,350c5,3 30,-2 55,-10c26,-9 59,-14 73,-11c15,3 37,0 50,-6c18,-8 27,-7 41,6c15,14 41,17 135,17c67,0 118,4 122,10c10,17 -5,50 -23,50c-12,0 -10,4 8,17c38,26 39,30 18,96c-13,43 -18,84 -16,134l3,74l54,-83c138,-208 403,-401 528,-384c139,19 382,212 504,401c30,46 54,84 55,84c0,1 -1,-43 -2,-96zm-1211,-258c75,-10 54,-20 -34,-17c-64,3 -78,6 -70,16c6,7 21,12 34,10c12,-2 43,-6 70,-9zm1316,-15c-75,-5 -87,-4 -77,5c12,12 124,21 137,11c11,-8 -4,-12 -60,-16z" fill="#000000" id="svg_9" transform="matrix(0.04996, 0, 0, -0.049888, 0, 222)"/>
   <path d="m1690,3180c-19,-5 -45,-6 -57,-3c-17,4 -23,1 -23,-10c0,-11 12,-17 38,-20l37,-4l-37,-1c-21,-1 -38,-6 -38,-10c0,-4 70,-8 155,-8c85,-1 155,2 155,7c0,4 -21,10 -47,12l-48,3l48,2c32,1 47,6 47,16c0,9 -14,13 -47,13c-27,0 -70,3 -98,6c-27,3 -66,2 -85,-3zm33,-27c-7,-2 -19,-2 -25,0c-7,3 -2,5 12,5c14,0 19,-2 13,-5z" fill="#000000" id="svg_10" transform="matrix(0.04996, 0, 0, -0.049888, 0, 222)"/>
   <path d="m1212,2253l3,-578l558,-3l557,-2l0,580l0,580l-560,0l-560,0l2,-577zm161,512c27,-38 14,-71 -36,-88c-23,-8 -50,-18 -59,-22c-16,-6 -18,0 -18,64l0,71l48,0c38,-1 50,-5 65,-25zm330,5c3,-12 0,-20 -7,-20c-34,0 -188,-23 -233,-34l-52,-14l6,31c5,22 1,33 -12,44c-16,11 4,13 137,13c147,0 156,-1 161,-20zm517,-46c0,-59 -2,-65 -17,-59c-95,36 -324,84 -408,85c-16,0 -41,9 -55,20c-25,20 -25,20 228,20l252,0l0,-66zm60,-10c0,-66 -2,-75 -17,-72c-15,3 -19,16 -21,76c-3,67 -1,72 18,72c18,0 20,-6 20,-76zm-525,-27c21,-32 33,-37 110,-41l40,-2l-1,-73c-2,-90 -16,-111 -63,-92c-16,7 -38,10 -48,7c-31,-9 -45,7 -34,38c6,14 18,29 26,32c21,8 19,21 -5,29c-13,4 -23,18 -27,36c-7,34 -18,37 -34,8c-9,-17 -17,-20 -41,-15c-26,5 -29,3 -23,-12c14,-33 15,-47 5,-62c-8,-13 -12,-12 -25,8c-9,12 -23,22 -31,22c-9,0 -14,11 -14,35c0,36 -19,55 -69,70l-24,7l8,-76c6,-71 5,-76 -12,-76c-11,0 -38,21 -61,46c-76,84 -52,101 188,138c14,2 45,4 70,4c40,1 47,-2 65,-31zm220,7c39,-7 109,-26 158,-40l87,-27l0,-58c0,-58 0,-59 -96,-188l-95,-129l-71,-4c-60,-3 -74,-7 -92,-29c-35,-41 -68,-51 -104,-29c-17,11 -43,17 -59,16c-15,-2 -33,-4 -39,-5c-7,0 -14,-10 -17,-21c-5,-19 -7,-19 -41,-5c-28,12 -36,12 -36,3c0,-7 -12,-21 -26,-31c-30,-22 -49,-11 -71,40c-17,42 -17,41 13,45c37,4 52,30 35,61c-7,14 -10,30 -7,36c9,14 8,14 -89,-4c-44,-8 -99,-14 -122,-15l-43,0l0,74l0,73l39,7c28,4 48,17 74,45l35,39l36,-26c31,-21 41,-24 64,-16c26,10 27,12 24,72c-2,52 0,61 13,56c8,-4 15,-18 15,-34c0,-41 10,-60 30,-60c10,0 21,-8 24,-18c4,-11 18,-30 32,-43c22,-21 36,-24 102,-25c43,-1 89,-5 104,-9c21,-6 32,-2 51,18c20,20 26,38 32,100c4,42 5,83 2,90c-3,9 -29,16 -72,20c-65,6 -95,19 -95,39c0,12 102,3 205,-18zm-611,-59c-4,-17 -1,-32 9,-43c15,-16 13,-20 -16,-55c-18,-21 -47,-42 -64,-47l-33,-9l0,68l0,68l53,21c28,11 53,21 55,21c1,1 0,-10 -4,-24zm916,-59c0,-19 -4,-23 -20,-19c-14,4 -20,14 -20,35c0,26 2,28 20,18c11,-6 20,-21 20,-34zm-545,-19c-8,-18 -35,-12 -35,8c0,16 22,26 33,15c4,-3 5,-14 2,-23zm545,-157l0,-130l-67,1c-38,1 -81,4 -96,8l-28,6l75,100c42,55 76,110 76,123c0,15 6,22 20,22c19,0 20,-7 20,-130zm-556,105c18,-13 17,-14 -8,-21c-26,-6 -56,8 -56,27c0,14 43,10 64,-6zm-224,-236c0,-4 -15,-9 -32,-11c-43,-4 -46,-26 -13,-94c28,-57 62,-78 89,-55c12,10 15,8 18,-11c2,-15 11,-24 26,-26c30,-5 29,-44 -3,-86c-29,-39 -30,-43 -9,-48c11,-2 22,-24 33,-68c11,-43 21,-65 31,-66c8,0 23,-4 33,-9c11,-5 24,-2 36,9c23,21 31,12 31,-41l0,-43l-240,0l-240,0l0,280l0,280l43,1c23,1 71,6 107,13c55,10 67,10 78,-3c6,-8 12,-18 12,-22zm778,-286l2,-263l-255,0l-255,0l0,50c0,28 5,50 10,50c6,0 10,7 10,15c0,8 4,15 9,15c6,0 7,16 4,36c-5,27 -2,39 10,45c8,5 18,26 22,47c3,21 16,50 29,63c16,17 25,42 29,82c3,33 2,57 -4,57c-5,0 -9,5 -9,11c0,19 71,41 115,34c32,-4 45,-2 55,10c11,13 32,15 119,13l106,-3l3,-262zm-564,168c-18,-30 -39,-41 -82,-41c-13,0 -20,-4 -17,-10c3,-6 -1,-7 -9,-4c-17,7 -19,14 -10,38c5,14 9,14 34,1c38,-20 40,-19 40,8c0,30 7,37 37,37c24,0 24,0 7,-29zm102,-2c42,19 50,14 46,-24c-5,-39 -6,-40 -53,-23c-36,12 -49,24 -49,47c0,11 3,11 15,1c12,-10 21,-10 41,-1zm-61,-71c7,-4 10,-18 8,-31c-4,-19 -11,-24 -34,-23c-19,1 -29,6 -29,17c0,8 -5,20 -12,27c-9,9 -7,12 9,12c11,0 24,8 28,18c6,14 8,15 13,2c3,-8 10,-18 17,-22zm69,-35c-7,-16 -14,-36 -14,-45c0,-9 -4,-20 -10,-23c-20,-12 -10,49 12,72c28,30 30,29 12,-4zm-170,-40l-6,-44l37,15c32,14 40,14 64,1c27,-13 28,-17 23,-67c-5,-54 -16,-72 -41,-63c-7,3 -20,0 -28,-7c-12,-10 -17,-9 -24,5c-6,9 -16,17 -24,17c-14,0 -38,57 -30,70c3,4 -2,13 -10,20c-13,11 -12,15 5,37c11,14 20,37 20,50c0,14 4,22 10,18c7,-4 8,-24 4,-52z" fill="#000000" id="svg_11" transform="matrix(0.04996, 0, 0, -0.049888, 0, 222)"/>
   <path d="m1690,2402c0,-19 -8,-35 -22,-45l-23,-15l27,-11c15,-5 33,-22 41,-36l14,-27l16,26c12,17 27,26 43,26c26,0 26,1 10,25c-10,16 -14,34 -10,50c6,23 4,25 -24,19c-16,-3 -39,-1 -51,5c-19,11 -21,9 -21,-17zm61,-42c8,-19 -11,-32 -28,-19c-14,12 -6,39 10,36c7,-1 15,-9 18,-17z" fill="#000000" id="svg_12" transform="matrix(0.04996, 0, 0, -0.049888, 0, 222)"/>
   <path d="m1510,1916c-8,-17 -22,-26 -37,-26c-26,0 -27,-3 -11,-33c7,-12 11,-32 9,-44c-2,-20 1,-22 27,-17c16,3 39,1 51,-5c19,-11 21,-9 21,17c0,16 7,35 15,42c22,18 19,29 -10,36c-14,3 -25,9 -25,13c0,4 -6,15 -13,25c-12,16 -14,16 -27,-8zm34,-70c-7,-17 -41,-14 -41,4c0,8 5,18 11,22c14,9 36,-10 30,-26z" fill="#000000" id="svg_13" transform="matrix(0.04996, 0, 0, -0.049888, 0, 222)"/>
   <path d="m1942,1894c-15,-10 -32,-14 -48,-10c-23,6 -25,5 -18,-16c8,-26 8,-34 -1,-65c-6,-18 -4,-21 14,-16c15,4 30,-2 45,-16l24,-22l10,29c6,17 20,33 33,37l23,8l-26,21c-14,11 -28,31 -30,44c-3,22 -4,22 -26,6zm11,-71c-6,-15 -13,-16 -31,-4c-19,11 -17,24 5,32c20,7 34,-7 26,-28z" fill="#000000" id="svg_14" transform="matrix(0.04996, 0, 0, -0.049888, 0, 222)"/>
   <path d="m1222,1595c18,-114 92,-239 218,-365c114,-114 265,-210 330,-210c63,0 222,104 338,221c121,121 197,251 217,367l7,42l-560,0l-559,0l9,-55zm109,-99c19,-57 30,-102 26,-99c-14,8 -87,165 -87,185c0,10 6,18 13,18c8,0 27,-42 48,-104zm76,69c1,-16 9,-52 16,-80c24,-84 6,-74 -29,16c-40,101 -40,101 -11,97c17,-2 23,-10 24,-33zm87,13c3,-13 5,-45 5,-73c0,-37 -3,-45 -9,-30c-5,11 -9,35 -9,53c-1,18 -6,42 -11,53c-8,15 -7,19 3,19c8,0 17,-10 21,-22zm214,-5c0,-36 -16,-57 -33,-43c-8,6 -30,8 -54,4c-37,-6 -41,-10 -41,-34c0,-16 -3,-36 -6,-45c-5,-11 0,-18 15,-22c19,-5 21,-12 21,-92c0,-101 13,-132 58,-146c30,-9 32,-12 32,-57c0,-55 0,-55 -82,0c-32,21 -38,30 -38,61c0,20 -7,90 -15,156c-8,66 -18,148 -21,183l-7,62l85,0l86,0l0,-27zm292,25c0,-2 -11,-99 -24,-217c-16,-136 -29,-219 -38,-227c-7,-7 -37,-26 -65,-43l-53,-30l0,59c0,56 2,60 23,60c12,0 33,7 45,16c19,13 22,24 22,85c0,55 3,69 15,69c19,0 20,39 1,46c-8,3 -13,11 -10,18c7,18 -22,40 -38,29c-7,-4 -23,-8 -35,-8c-17,-1 -23,5 -23,21c0,12 7,24 15,28c19,7 19,33 0,43c-9,5 -12,17 -8,31c5,21 11,22 89,22c46,0 84,-1 84,-2zm64,-20c-4,-13 -7,-33 -6,-45c1,-11 -5,-38 -13,-60l-15,-38l5,40c2,22 5,59 5,83c0,31 4,42 16,42c11,0 14,-6 8,-22zm95,-30c-11,-29 -29,-71 -40,-93l-19,-40l6,45c4,25 10,53 15,62c5,9 9,30 9,47c0,26 4,31 25,31l25,0l-21,-52zm97,-12c-20,-55 -81,-166 -92,-166c-2,0 29,97 71,218c2,6 13,12 25,12c19,0 19,-1 -4,-64zm-466,17c0,-7 8,-17 18,-23c14,-9 14,-11 1,-7c-9,3 -21,1 -26,-4c-6,-6 -18,-6 -34,0c-13,5 -18,10 -10,10c8,1 11,8 9,19c-4,12 1,17 19,17c12,0 23,-5 23,-12zm-131,-70c7,-8 8,-13 1,-13c-5,0 -10,-8 -10,-17c0,-15 -2,-15 -9,-4c-5,8 -16,11 -26,7c-15,-5 -16,-4 -6,8c7,8 10,19 8,23c-9,14 29,10 42,-4zm48,-125c-2,-24 -4,-7 -4,37c0,44 2,63 4,43c2,-21 2,-57 0,-80zm83,1c0,-79 3,-99 14,-99c35,0 46,13 46,52c0,36 1,38 16,24c10,-11 14,-30 12,-58c-3,-43 -3,-43 -45,-46l-43,-3l0,-80l0,-79l-30,0l-30,0l0,75l0,75l-33,0c-50,0 -57,14 -57,107c0,67 3,83 15,83c11,0 15,-12 15,-48c0,-51 12,-72 42,-72c14,0 18,8 18,38c0,20 3,60 6,88c6,47 8,50 30,46c23,-4 24,-7 24,-103zm100,47c0,-6 -5,-18 -10,-26c-7,-12 -10,-12 -10,-1c0,7 -6,11 -12,8c-8,-3 -13,4 -13,17c0,18 5,21 23,18c12,-2 22,-9 22,-16zm240,-37c-20,-53 -50,-108 -35,-64c21,60 48,125 52,122c2,-3 -5,-29 -17,-58zm-707,-16c14,-35 24,-63 21,-63c-5,0 -37,72 -49,110c-13,43 2,18 28,-47zm124,-115c-3,-7 -5,-2 -5,12c0,14 2,19 5,13c2,-7 2,-19 0,-25zm440,-40c-3,-7 -5,-2 -5,12c0,14 2,19 5,13c2,-7 2,-19 0,-25z" fill="#000000" id="svg_15" transform="matrix(0.04996, 0, 0, -0.049888, 0, 222)"/>
   <path d="m820,2040c0,-61 -4,-152 -9,-203c-5,-51 -13,-148 -16,-217c-5,-100 -4,-123 6,-113c9,9 15,70 21,190c4,98 11,223 16,278c10,105 6,175 -9,175c-5,0 -9,-50 -9,-110z" fill="#000000" id="svg_16" transform="matrix(0.04996, 0, 0, -0.049888, 0, 222)"/>
   <path d="m2737,1978c-3,-24 1,-115 8,-203c8,-88 15,-207 15,-265c1,-99 10,-155 22,-134c3,5 1,74 -3,154c-5,80 -11,223 -15,318c-7,170 -16,213 -27,130z" fill="#000000" id="svg_17" transform="matrix(0.04996, 0, 0, -0.049888, 0, 222)"/>
   <path d="m2519,1844c-10,-26 -14,-84 -33,-401c-3,-46 -2,-83 3,-83c4,0 13,89 20,198c7,108 17,221 23,250c11,61 4,79 -13,36z" fill="#000000" id="svg_18" transform="matrix(0.04996, 0, 0, -0.049888, 0, 222)"/>
   <path d="m1073,992l-43,-3l3,-147l2,-147l47,-3c39,-3 47,-7 50,-25c2,-17 10,-22 33,-23c64,-3 65,-3 65,-32l0,-29l538,1l537,1l3,28c3,27 6,28 67,31c23,1 31,6 33,24c3,19 9,22 46,22l43,0l5,68c3,37 5,103 4,147l-1,80l-46,6c-25,4 -79,6 -119,5c-74,-1 -75,-1 -78,-29c-3,-23 -7,-26 -28,-21c-29,7 -54,-10 -54,-39c0,-18 -4,-19 -62,-11c-35,4 -79,7 -98,5c-47,-4 -107,-4 -155,-1c-36,2 -68,3 -170,1c-16,0 -98,-1 -181,-3l-151,-3l-11,28c-10,25 -15,29 -42,25c-26,-4 -30,-2 -30,19c0,13 -3,24 -7,24c-23,4 -164,5 -200,1zm58,-36c-9,-10 -10,-46 -5,-125l7,-111l-35,0l-35,0l-1,117c-2,126 1,133 52,133c23,0 26,-2 17,-14zm1335,2c10,-16 14,-121 7,-185c-5,-50 -7,-53 -34,-53l-28,0l-3,125l-3,125l27,0c15,0 30,-5 34,-12zm-1238,-171l4,-123l-41,4l-41,4l0,119l0,119l38,0l37,0l3,-123zm1162,4l0,-119l-40,-4l-40,-4l0,123l0,123l40,0l40,0l0,-119zm-795,77c42,1 280,1 350,1c22,0 58,0 80,1c74,2 220,-2 238,-6c15,-5 17,-20 17,-132l0,-127l-93,4c-135,5 -220,6 -332,3c-55,-1 -167,-1 -250,-1c-82,0 -196,-1 -253,-3l-102,-3l0,132l0,131l73,-3c39,-1 92,1 117,5c25,5 61,6 80,3c19,-4 53,-6 75,-5z" fill="#000000" id="svg_19" transform="matrix(0.04996, 0, 0, -0.049888, 0, 222)"/>
   <path d="m1305,763c-4,-31 -11,-67 -16,-80c-7,-20 -5,-23 14,-23c20,0 23,4 19,35c-2,19 0,35 5,35c5,0 17,-16 26,-35c9,-19 20,-35 24,-35c5,0 18,22 30,48l21,47l2,-40c1,-22 2,-43 1,-47c0,-5 16,-7 37,-7c20,1 30,3 21,6c-11,3 -19,20 -23,56c-9,68 -17,97 -25,97c-4,0 -18,-24 -33,-52l-25,-53l-27,53c-14,28 -30,52 -35,52c-5,0 -12,-26 -16,-57z" fill="#000000" id="svg_20" transform="matrix(0.04996, 0, 0, -0.049888, 0, 222)"/>
   <path d="m1532,804c-32,-22 -43,-57 -31,-94c14,-38 36,-50 92,-50c32,0 47,5 51,16c9,23 1,28 -23,13c-51,-32 -111,35 -77,86c20,30 73,35 83,8c6,-15 7,-14 13,3c4,10 6,22 3,27c-8,13 -88,7 -111,-9z" fill="#000000" id="svg_21" transform="matrix(0.04996, 0, 0, -0.049888, 0, 222)"/>
   <path d="m1686,793c-3,-16 -8,-46 -12,-68c-4,-22 -11,-46 -17,-52c-7,-10 -1,-13 24,-13c22,0 29,3 21,9c-10,6 -11,17 -5,41l9,33l18,-42c11,-22 23,-41 28,-41c5,0 17,18 25,40c18,44 33,38 33,-12c0,-27 2,-28 50,-28c36,0 50,4 50,14c0,7 6,19 13,25c11,8 17,5 27,-14c12,-23 19,-25 84,-25c53,1 67,3 54,11c-14,8 -18,23 -18,69c0,94 23,90 69,-13c17,-37 34,-67 38,-67c4,0 23,33 42,73c19,39 37,75 39,80c2,4 -8,7 -22,7c-17,0 -25,-5 -24,-17c0,-10 -6,-34 -15,-53l-15,-34l-16,39c-9,21 -14,45 -12,52c4,10 -12,13 -66,13c-56,0 -69,-3 -60,-12c7,-7 12,-39 12,-75c0,-55 -2,-63 -19,-63c-18,0 -61,54 -61,77c0,6 11,22 25,37c31,34 31,36 -1,36c-14,0 -23,-3 -20,-8c2,-4 -2,-15 -9,-25c-11,-15 -14,-15 -25,-3c-6,9 -9,20 -5,26c4,6 -7,10 -29,10c-36,0 -48,-13 -22,-23c8,-3 22,-19 30,-35c14,-28 14,-31 -13,-62c-15,-18 -32,-30 -38,-27c-6,4 -14,38 -18,77c-4,38 -11,70 -16,70c-5,0 -21,-24 -35,-52l-27,-53l-25,53c-15,28 -29,52 -33,52c-4,0 -10,-12 -13,-27z" fill="#000000" id="svg_22" transform="matrix(0.04996, 0, 0, -0.049888, 0, 222)"/>
   <path d="m852,3980c-28,-12 -122,-90 -122,-101c0,-5 6,-6 13,-3c8,3 37,-22 70,-59c50,-57 55,-66 41,-78c-13,-11 -31,-8 -112,19c-53,17 -98,29 -101,26c-3,-2 15,-44 39,-92c25,-48 44,-95 42,-104c-3,-27 12,-22 38,14c18,24 19,30 6,25c-12,-5 -20,1 -28,19c-10,21 -9,28 8,44c18,18 22,18 48,5c28,-15 28,-15 107,64c75,74 79,81 79,123c0,35 -6,50 -27,70c-33,31 -69,41 -101,28zm76,-66c26,-29 28,-61 6,-92c-23,-33 -44,-26 -97,33l-48,54l33,21c40,25 74,20 106,-16zm-200,-193c11,-6 10,-10 0,-19c-11,-8 -17,-6 -26,9c-10,15 -10,19 0,19c7,0 19,-4 26,-9z" fill="#000000" id="svg_23" transform="matrix(0.04996, 0, 0, -0.049888, 0, 222)"/>
   <path d="m2714,3965c5,-16 -8,-34 -53,-79c-33,-32 -64,-55 -70,-52c-29,19 -5,-17 43,-63c47,-44 61,-51 94,-51c70,0 122,67 100,131c-11,31 -123,143 -114,114zm60,-77c26,-37 20,-83 -15,-112c-38,-32 -60,-33 -96,-2l-28,25l55,55c30,31 58,56 62,56c4,0 14,-10 22,-22z" fill="#000000" id="svg_24" transform="matrix(0.04996, 0, 0, -0.049888, 0, 222)"/>
   <path d="m2896,3778c7,-21 -113,-120 -138,-114c-14,3 -10,-7 15,-41c37,-52 48,-59 74,-44c17,10 16,10 -4,11c-12,0 -27,8 -32,19c-8,14 -5,23 14,41c21,19 27,21 40,10c9,-7 14,-19 11,-27c-7,-16 4,-16 26,0c15,12 15,14 -3,25c-25,16 -24,36 4,55c21,14 24,13 36,-4c6,-11 9,-24 6,-29c-9,-15 11,-12 23,3c8,9 -1,25 -34,62c-24,28 -41,43 -38,33z" fill="#000000" id="svg_25" transform="matrix(0.04996, 0, 0, -0.049888, 0, 222)"/>
   <path d="m555,3645c-30,-15 -105,-112 -105,-136c0,-10 3,-10 11,-2c15,15 149,-72 149,-96c1,-20 43,28 71,81c35,67 16,128 -48,154c-40,17 -41,17 -78,-1zm89,-60c30,-28 33,-64 8,-95l-18,-23l-68,46l-68,45l25,26c34,34 84,35 121,1z" fill="#000000" id="svg_26" transform="matrix(0.04996, 0, 0, -0.049888, 0, 222)"/>
   <path d="m3030,3580c-13,-8 -12,-12 8,-25c12,-9 22,-22 22,-28c0,-20 -124,-89 -145,-81c-16,6 -15,2 6,-36c18,-32 25,-38 27,-24c2,11 30,34 69,57c52,29 69,35 80,25c8,-6 12,-20 10,-30c-6,-20 1,-22 21,-9c11,6 4,25 -30,84c-23,42 -45,76 -48,77c-3,0 -12,-5 -20,-10z" fill="#000000" id="svg_27" transform="matrix(0.04996, 0, 0, -0.049888, 0, 222)"/>
   <path d="m408,3442c-22,-37 -22,-42 -3,-42c25,0 155,-69 155,-83c1,-12 23,13 42,46c8,16 7,18 -11,12c-25,-8 -158,59 -163,82c-2,9 -9,4 -20,-15z" fill="#000000" id="svg_28" transform="matrix(0.04996, 0, 0, -0.049888, 0, 222)"/>
   <path d="m3145,3408c3,-8 -21,-26 -61,-47c-70,-36 -91,-63 -80,-106c17,-67 75,-82 165,-40c42,20 56,23 63,13c12,-19 11,8 -2,31c-8,16 -14,15 -80,-17c-60,-30 -74,-34 -95,-24c-30,14 -34,51 -7,74c27,24 111,58 128,51c14,-5 14,-2 0,32c-9,21 -16,39 -16,41c0,2 -4,4 -10,4c-5,0 -7,-6 -5,-12z" fill="#000000" id="svg_29" transform="matrix(0.04996, 0, 0, -0.049888, 0, 222)"/>
   <path d="m346,3322c-32,-62 14,-105 81,-77c45,19 72,19 79,0c8,-20 -13,-45 -40,-45c-20,-1 -20,-1 2,-14c23,-12 23,-13 -28,-35c-43,-18 -54,-20 -61,-9c-5,7 -9,16 -9,21c0,12 -48,27 -66,20c-9,-3 -27,-30 -40,-60c-28,-63 -31,-81 -9,-63c12,10 29,7 90,-15c43,-16 75,-33 75,-41c0,-25 16,-14 28,19c15,40 16,69 3,48c-10,-16 -74,-5 -68,12c1,5 24,16 50,24c41,12 49,19 72,64c54,108 15,157 -89,114c-41,-17 -56,-13 -56,16c0,17 11,24 33,20c14,-2 7,17 -9,23c-22,9 -22,9 -38,-22zm12,-195c6,-7 7,-18 3,-26c-7,-11 -16,-11 -45,-1c-30,10 -35,14 -25,26c14,18 53,18 67,1z" fill="#000000" id="svg_30" transform="matrix(0.04996, 0, 0, -0.049888, 0, 222)"/>
   <path d="m3132,3145c-37,-31 -47,-71 -31,-124c16,-52 29,-64 60,-52c17,7 19,10 7,10c-22,1 -48,39 -48,69c0,13 13,37 30,53c24,25 37,30 67,27c33,-3 41,-8 57,-41c17,-36 17,-39 1,-58c-17,-18 -17,-19 4,-19c29,0 36,23 22,72c-26,85 -107,115 -169,63z" fill="#000000" id="svg_31" transform="matrix(0.04996, 0, 0, -0.049888, 0, 222)"/>
   <path d="m208,2950c-9,-33 -12,-60 -8,-60c5,0 10,5 12,10c2,7 37,0 92,-18l88,-29l10,26c5,14 12,40 15,57c4,26 1,32 -16,37c-21,5 -29,-7 -12,-17c15,-9 0,-46 -18,-46c-27,0 -61,12 -61,20c0,5 7,16 17,25c14,14 14,18 2,26c-22,14 -29,11 -29,-15c0,-31 -12,-39 -43,-27c-19,7 -24,15 -20,30c3,12 10,21 15,21c5,0 6,5 3,10c-15,24 -32,6 -47,-50z" fill="#000000" id="svg_32" transform="matrix(0.04996, 0, 0, -0.049888, 0, 222)"/>
   <path d="m3319,2981c-3,-7 -29,-18 -59,-26c-81,-21 -105,-43 -104,-96c1,-31 7,-47 24,-61c26,-21 48,-22 135,-6c62,12 64,13 58,38c-8,34 -11,36 -26,17c-14,-18 -126,-44 -150,-34c-26,10 -22,64 5,78c34,18 118,38 134,32c12,-4 14,0 8,23c-8,34 -20,51 -25,35z" fill="#000000" id="svg_33" transform="matrix(0.04996, 0, 0, -0.049888, 0, 222)"/>
   <path d="m180,2853c0,-11 25,-34 62,-58l61,-39l-29,-8c-16,-4 -50,-9 -76,-10c-35,-2 -48,-6 -48,-18c0,-8 -3,-26 -6,-40c-5,-23 -4,-23 8,-8c9,11 48,23 109,34c52,9 97,20 102,23c4,4 -30,34 -75,66c-46,33 -84,63 -86,67c-7,15 -22,8 -22,-9z" fill="#000000" id="svg_34" transform="matrix(0.04996, 0, 0, -0.049888, 0, 222)"/>
   <path d="m3190,2705c0,-14 5,-25 10,-25c6,0 10,5 10,10c0,6 24,10 52,10l53,0l-53,-35c-28,-20 -52,-39 -52,-44c0,-5 30,-17 67,-27l67,-18l-62,-18c-57,-17 -62,-21 -62,-47c0,-45 12,-94 20,-81c4,7 17,9 33,4c21,-5 27,-12 27,-34c0,-24 -6,-30 -36,-40c-30,-10 -35,-16 -30,-34c3,-11 6,-37 6,-56l0,-35l67,3l68,3l-74,-73c-83,-82 -88,-75 57,-80c68,-3 82,-1 82,12c0,13 -12,15 -72,12l-73,-3l79,74l79,74l-54,6c-30,4 -76,7 -102,7c-77,0 -60,27 51,79c51,25 91,49 89,54c-1,5 -45,24 -97,41c-64,21 -95,36 -95,46c0,10 31,25 95,46c52,17 88,34 80,37c-8,3 -46,15 -83,27l-68,22l63,44c35,25 65,49 66,54c2,6 -38,10 -102,10l-106,0l0,-25zm173,-295c16,0 -14,-20 -30,-20c-7,0 -13,7 -13,16c0,11 5,14 16,10c9,-3 21,-6 27,-6z" fill="#000000" id="svg_35" transform="matrix(0.04996, 0, 0, -0.049888, 0, 222)"/>
   <path d="m137,2628c-4,-12 -7,-31 -7,-42c0,-15 3,-16 14,-7c11,10 33,10 95,0c45,-6 81,-16 81,-21c0,-5 4,-6 10,-3c6,3 10,23 10,43c0,25 -3,33 -9,23c-7,-11 -22,-12 -92,-1c-46,6 -87,16 -90,22c-3,5 -9,-1 -12,-14z" fill="#000000" id="svg_36" transform="matrix(0.04996, 0, 0, -0.049888, 0, 222)"/>
   <path d="m120,2507c0,-25 2,-26 71,-29l70,-3l-80,-66c-44,-37 -77,-69 -74,-73c4,-3 29,-6 57,-7c28,0 72,-4 99,-8l47,-8l0,31c0,20 -3,26 -9,18c-5,-9 -26,-12 -66,-10l-58,3l77,64c52,44 73,67 64,72c-7,3 -49,10 -93,13c-44,4 -85,12 -92,18c-10,8 -13,4 -13,-15z" fill="#000000" id="svg_37" transform="matrix(0.04996, 0, 0, -0.049888, 0, 222)"/>
   <path d="m104,2264c3,-9 6,-21 6,-27c0,-8 23,-11 75,-9c83,4 105,-5 105,-43c0,-35 -20,-44 -103,-47c-75,-1 -77,-2 -77,-26c0,-24 1,-25 74,-20c100,7 126,24 126,83c0,64 -30,85 -121,85c-39,0 -69,4 -69,10c0,6 -5,10 -11,10c-6,0 -8,-7 -5,-16z" fill="#000000" id="svg_38" transform="matrix(0.04996, 0, 0, -0.049888, 0, 222)"/>
   <path d="m195,1897l-18,-53l28,-42c15,-23 31,-42 36,-42c4,0 15,22 24,50l16,49l-31,46c-17,25 -32,45 -34,45c-1,0 -11,-24 -21,-53z" fill="#000000" id="svg_39" transform="matrix(0.04996, 0, 0, -0.049888, 0, 222)"/>
   <path d="m3316,1903l-29,-45l17,-54c9,-30 19,-54 20,-54c2,0 18,22 35,48l31,49l-16,46c-9,26 -19,49 -23,51c-4,3 -20,-16 -35,-41z" fill="#000000" id="svg_40" transform="matrix(0.04996, 0, 0, -0.049888, 0, 222)"/>
   <path d="m247,1608c-59,-16 -77,-24 -73,-35c3,-8 6,-22 6,-31c0,-14 1,-14 13,0c10,12 114,48 140,48c13,0 7,-28 -9,-41c-13,-10 -19,-10 -36,0c-27,17 -35,6 -13,-19c23,-25 57,-26 79,-1c15,16 16,25 6,60c-6,23 -16,41 -23,40c-7,-1 -47,-10 -90,-21z" fill="#000000" id="svg_41" transform="matrix(0.04996, 0, 0, -0.049888, 0, 222)"/>
   <path d="m3177,1603c-4,-3 -7,-20 -7,-38c0,-57 38,-71 97,-34c39,24 66,19 61,-13c-2,-14 -12,-24 -28,-28l-25,-6l25,-7c51,-14 71,69 24,100c-25,16 -28,16 -76,-11c-31,-18 -53,-25 -59,-19c-13,13 0,43 18,43c8,0 11,5 8,10c-7,11 -28,13 -38,3z" fill="#000000" id="svg_42" transform="matrix(0.04996, 0, 0, -0.049888, 0, 222)"/>
   <path d="m370,1498c0,-19 -121,-64 -146,-54c-11,4 -15,2 -11,-8c3,-8 11,-33 17,-55c8,-32 16,-41 32,-41c20,0 20,1 5,18c-24,26 -21,41 9,52c31,12 47,4 41,-21c-3,-11 0,-19 7,-19c21,0 26,12 15,33c-12,22 1,37 35,37c14,0 17,-6 14,-25c-4,-19 -1,-25 13,-25c23,0 23,-4 3,56c-18,53 -34,78 -34,52z" fill="#000000" id="svg_43" transform="matrix(0.04996, 0, 0, -0.049888, 0, 222)"/>
   <path d="m3140,1470c-13,-25 -13,-33 3,-27c7,2 39,-5 72,-18c54,-20 60,-25 60,-50c0,-44 -25,-53 -87,-31c-29,11 -59,23 -66,29c-14,11 -17,9 -26,-18c-5,-18 4,-23 69,-43c57,-17 80,-20 95,-12c47,25 55,97 14,129c-15,12 -31,21 -36,21c-5,0 -27,9 -49,19c-38,19 -40,19 -49,1z" fill="#000000" id="svg_44" transform="matrix(0.04996, 0, 0, -0.049888, 0, 222)"/>
   <path d="m420,1362c0,-17 -127,-75 -147,-68c-17,7 -11,-17 21,-84c31,-61 78,-81 132,-54c51,25 62,61 41,128c-17,53 -46,102 -47,78zm30,-103c0,-31 -12,-49 -41,-64c-37,-20 -62,-19 -82,3c-32,36 -25,50 38,81c54,26 61,27 73,13c6,-9 12,-24 12,-33z" fill="#000000" id="svg_45" transform="matrix(0.04996, 0, 0, -0.049888, 0, 222)"/>
   <path d="m3062,1275c-17,-36 -15,-49 9,-71c19,-17 22,-18 68,-1c66,23 73,22 69,-10c-2,-22 -8,-28 -25,-27c-29,1 -30,-13 -1,-22c28,-8 48,18 48,63c0,47 -36,63 -86,40c-40,-20 -60,-21 -69,-7c-10,16 16,42 33,35c12,-4 13,-3 2,10c-18,22 -35,18 -48,-10z" fill="#000000" id="svg_46" transform="matrix(0.04996, 0, 0, -0.049888, 0, 222)"/>
   <path d="m3002,1145c-15,-33 -15,-36 2,-29c15,6 136,-51 147,-69c4,-5 15,5 24,23c16,31 16,33 0,26c-11,-4 -43,8 -87,34c-38,22 -71,40 -72,40c-2,0 -8,-11 -14,-25z" fill="#000000" id="svg_47" transform="matrix(0.04996, 0, 0, -0.049888, 0, 222)"/>
   <path d="m446,1124c-38,-19 -75,-33 -82,-30c-19,7 -18,3 11,-54c24,-47 46,-62 59,-41c3,5 -3,11 -14,14c-29,7 -25,42 7,56c21,10 28,9 34,-1c5,-7 7,-19 4,-27c-4,-9 0,-11 11,-7c8,3 18,6 20,6c2,0 -3,11 -12,25c-15,24 -15,25 11,37c22,10 28,9 36,-3c5,-8 7,-20 4,-26c-5,-15 11,-17 20,-3c5,8 -31,92 -38,89c-1,-1 -33,-16 -71,-35z" fill="#000000" id="svg_48" transform="matrix(0.04996, 0, 0, -0.049888, 0, 222)"/>
   <path d="m2970,1080c-8,-15 -7,-19 2,-15c7,2 30,-19 51,-47c29,-37 34,-49 20,-45c-10,3 -37,9 -60,12c-24,4 -43,11 -43,16c0,5 -4,9 -8,9c-7,0 -20,-19 -40,-63c-3,-5 4,-4 14,1c13,7 46,6 104,-4c47,-7 86,-14 88,-14c1,0 2,4 2,10c0,12 -103,159 -112,160c-4,0 -12,-9 -18,-20z" fill="#000000" id="svg_49" transform="matrix(0.04996, 0, 0, -0.049888, 0, 222)"/>
   <path d="m537,1002c-10,-10 -17,-30 -17,-43c0,-14 -6,-34 -14,-45c-14,-18 -16,-18 -33,-1c-15,14 -16,21 -5,37c14,22 9,25 -18,10c-13,-7 -17,-16 -13,-28c27,-77 123,-64 123,18c0,35 15,54 35,46c12,-4 15,-13 11,-31c-7,-27 5,-33 23,-11c8,10 6,19 -10,40c-24,30 -59,34 -82,8z" fill="#000000" id="svg_50" transform="matrix(0.04996, 0, 0, -0.049888, 0, 222)"/>
   <path d="m690,861c0,-14 -119,-103 -130,-96c-15,10 -12,2 15,-35c20,-27 25,-30 25,-14c0,18 99,104 120,104c13,0 12,11 -4,33c-14,18 -26,22 -26,8z" fill="#000000" id="svg_51" transform="matrix(0.04996, 0, 0, -0.049888, 0, 222)"/>
   <path d="m2807,843c-3,-3 14,-39 39,-80c24,-41 44,-79 44,-84c0,-5 -19,-9 -42,-9c-39,0 -45,4 -58,33c-21,46 -50,46 -99,1c-42,-37 -53,-58 -25,-47c22,8 124,-94 117,-116c-4,-9 7,-3 25,13c33,31 41,49 20,41c-16,-6 -54,22 -44,32c3,4 27,6 51,4c39,-2 48,1 74,30c27,29 34,58 11,44c-5,-3 -14,3 -19,14c-8,15 -7,24 7,40c15,19 19,20 44,7c24,-12 28,-12 41,2c27,33 31,45 11,38c-11,-3 -58,5 -106,18c-47,13 -89,22 -91,19zm83,-63c0,-5 -4,-10 -9,-10c-6,0 -13,5 -16,10c-3,6 1,10 9,10c9,0 16,-4 16,-10zm-121,-98c17,-32 -8,-46 -36,-20c-13,12 -23,25 -23,30c0,16 50,8 59,-10z" fill="#000000" id="svg_52" transform="matrix(0.04996, 0, 0, -0.049888, 0, 222)"/>
   <path d="m2588,605c-35,-33 -50,-54 -29,-40c10,5 102,-94 111,-120c4,-10 16,-4 43,22c27,24 36,40 32,51c-6,15 -8,14 -16,-5c-10,-28 -30,-29 -53,-4c-19,21 -14,41 10,41c17,0 18,12 3,27c-9,9 -16,6 -30,-10c-19,-22 -19,-22 -34,-2c-19,24 -15,39 14,43c18,3 20,6 10,18c-16,19 -19,18 -61,-21z" fill="#000000" id="svg_54" transform="matrix(0.04996, 0, 0, -0.049888, 0, 222)"/>
   <path d="m930,585c-10,-12 -9,-15 7,-15c41,0 44,-21 10,-68c-18,-24 -42,-52 -54,-62l-22,-17l31,-23c20,-15 29,-18 26,-9c-3,8 8,33 24,54c16,22 35,48 42,58c16,22 46,12 46,-15c0,-17 2,-18 15,-8c9,7 14,16 13,20c-3,9 -114,100 -121,100c-3,0 -10,-7 -17,-15z" fill="#000000" id="svg_55" transform="matrix(0.04996, 0, 0, -0.049888, 0, 222)"/>
   <path d="m2425,482c-41,-25 -55,-38 -42,-40c19,-4 97,-112 97,-136c0,-25 97,44 116,82c19,40 12,75 -21,108c-35,35 -78,31 -150,-14zm112,-7c11,-8 26,-28 31,-44c9,-25 7,-34 -9,-56c-11,-14 -27,-25 -34,-25c-14,0 -85,95 -85,113c0,9 38,25 60,26c9,1 25,-6 37,-14z" fill="#000000" id="svg_56" transform="matrix(0.04996, 0, 0, -0.049888, 0, 222)"/>
   <path d="m1083,477c0,-22 -74,-138 -84,-132c-5,4 -9,3 -9,-2c0,-4 21,-21 46,-36c43,-26 48,-27 63,-13c14,15 13,16 -11,16c-34,0 -41,12 -27,44c14,29 34,34 47,10c7,-13 10,-13 20,-1c10,11 7,16 -13,25c-25,11 -25,13 -10,36c17,26 45,25 45,0c0,-19 16,-18 24,1c3,10 -9,23 -38,40c-49,29 -53,30 -53,12z" fill="#000000" id="svg_57" transform="matrix(0.04996, 0, 0, -0.049888, 0, 222)"/>
   <path d="m2310,415c-14,-8 -19,-14 -13,-15c16,0 86,-137 78,-150c-9,-14 2,-12 38,7c21,11 27,18 17,20c-20,5 -83,120 -76,139c7,18 -12,17 -44,-1z" fill="#000000" id="svg_58" transform="matrix(0.04996, 0, 0, -0.049888, 0, 222)"/>
   <path d="m1199,412c11,-8 8,-22 -19,-81c-21,-44 -39,-71 -49,-71c-9,-1 0,-9 19,-20c46,-25 51,-25 45,3c-3,12 -1,29 5,37c9,13 11,13 20,0c5,-8 10,-24 10,-36c0,-11 6,-28 13,-37c13,-19 127,-61 136,-51c3,4 1,9 -6,11c-12,4 -2,58 11,58c5,0 16,-20 25,-45c15,-41 21,-46 61,-56c40,-10 83,-7 52,4c-21,7 6,42 32,42c24,0 36,-17 36,-50c0,-12 9,-19 30,-22c32,-5 50,6 26,15c-8,3 -21,40 -31,85c-17,80 -33,116 -41,97c-15,-33 -91,-149 -100,-152c-6,-2 -18,16 -28,39c-16,42 -16,43 4,57c28,19 27,66 -2,85c-24,15 -112,34 -91,19c9,-7 7,-26 -9,-81c-18,-63 -24,-73 -42,-70c-15,2 -25,16 -35,47c-13,42 -13,44 14,65c35,28 31,64 -10,87c-33,19 -100,37 -76,21zm66,-43c13,-19 -4,-59 -25,-59c-23,0 -25,9 -8,45c12,27 23,32 33,14zm165,-84c0,-25 -25,-52 -34,-37c-3,6 -3,24 0,40c7,36 34,33 34,-3zm138,-94c-15,-5 -19,4 -11,24c6,18 7,18 13,-1c4,-10 3,-21 -2,-23z" fill="#000000" id="svg_59" transform="matrix(0.04996, 0, 0, -0.049888, 0, 222)"/>
   <path d="m2206,367c-12,-9 -17,-23 -14,-42c2,-25 12,-34 51,-53c48,-23 61,-47 31,-59c-9,-3 -25,-1 -35,6c-22,13 -24,8 -8,-20c18,-35 89,2 89,47c0,25 -43,64 -70,64c-22,0 -44,25 -35,40c9,14 42,13 48,-2c3,-7 6,-3 6,10c1,17 -5,22 -22,22c-13,0 -31,-6 -41,-13z" fill="#000000" id="svg_60" transform="matrix(0.04996, 0, 0, -0.049888, 0, 222)"/>
   <path d="m1930,293c-30,-6 -52,-23 -28,-23c11,0 18,-19 28,-74c7,-41 9,-79 5,-86c-8,-12 42,-7 102,12c39,11 73,51 73,85c0,31 -25,79 -45,87c-18,7 -95,6 -135,-1zm107,-28c24,-17 38,-64 28,-94c-7,-22 -62,-48 -74,-35c-9,9 -31,103 -31,129c0,20 49,20 77,0z" fill="#000000" id="svg_61"/>
  </g>
 </g>
</svg>