<svg xmlns="http://www.w3.org/2000/svg" viewBox="0 0 620 222" width="620" height="222">
  <g transform="translate(0.000000,222.000000) scale(0.049960,-0.049888)" fill="white" stroke="none">
<path d="M1595 4443 c-166 -21 -317 -68 -480 -149 -441 -217 -796 -654 -980
-1205 -105 -316 -140 -567 -132 -942 5 -272 26 -425 91 -660 222 -802 800
-1382 1474 -1478 120 -17 403 -6 512 19 304 71 594 239 813 472 366 388 583
888 638 1474 16 172 6 491 -20 661 -82 537 -301 993 -641 1334 -256 258 -558
417 -885 466 -90 13 -313 18 -390 8z m443 -73 c308 -62 607 -234 833 -478 658
-711 809 -1889 359 -2807 -329 -671 -897 -1058 -1515 -1032 -395 17 -733 179
-1040 499 -548 570 -758 1486 -540 2344 45 175 91 298 180 479 282 576 744
938 1295 1015 99 14 313 4 428 -20z"/>
<path d="M1674 4327 c15 -11 17 -26 14 -100 l-3 -87 38 0 c35 0 37 1 23 16
-20 20 -23 169 -3 177 6 3 -10 6 -37 6 -43 1 -47 -1 -32 -12z"/>
<path d="M1821 4314 c-27 -22 -31 -32 -31 -74 0 -69 29 -101 98 -108 47 -4 54
-2 81 25 54 54 49 141 -9 170 -43 22 -105 16 -139 -13z m118 -20 c36 -46 21
-129 -26 -140 -52 -13 -93 48 -78 116 12 54 70 67 104 24z"/>
<path d="M1514 4320 c-32 -13 -64 -59 -64 -92 0 -65 45 -108 115 -108 55 0 85
16 85 45 0 29 -15 34 -23 6 -6 -25 -55 -33 -90 -15 -43 23 -61 90 -34 127 18
26 79 33 100 12 16 -15 17 -15 17 9 0 24 -3 26 -42 25 -24 0 -53 -4 -64 -9z"/>
<path d="M2087 4303 c-2 -5 -17 -45 -31 -90 -15 -46 -33 -83 -39 -83 -15 -1
10 -15 43 -25 21 -7 23 -6 12 7 -10 12 -9 26 5 73 l18 57 43 -89 c40 -80 48
-90 86 -106 50 -21 57 -21 50 -4 -3 8 2 20 11 27 12 10 21 10 41 1 23 -10 25
-16 20 -44 -6 -32 -4 -34 75 -85 64 -42 84 -50 95 -41 21 17 17 27 -9 22 -13
-3 -29 2 -36 10 -10 13 -5 27 31 81 24 36 50 66 58 66 11 1 10 4 -5 16 -39 30
-53 35 -49 16 6 -21 -82 -145 -99 -139 -9 3 -11 36 -9 116 1 61 0 111 -4 111
-3 0 -39 -29 -80 -65 -67 -59 -124 -85 -111 -52 2 6 15 45 28 85 15 47 28 72
38 72 22 0 1 16 -31 24 -22 5 -26 3 -22 -9 7 -17 -15 -115 -25 -115 -4 0 -25
36 -46 81 -40 82 -50 96 -58 82z m267 -190 c-4 -14 -11 -20 -20 -16 -13 5 -12
8 2 24 21 23 25 21 18 -8z"/>
<path d="M1300 4181 c0 -49 -5 -102 -10 -117 -6 -15 -9 -28 -8 -30 2 -1 19 5
38 13 26 12 30 17 18 20 -28 7 -22 48 8 62 22 10 30 9 45 -5 11 -9 19 -23 19
-30 0 -10 7 -11 33 -2 42 14 57 28 30 28 -14 0 -46 27 -90 75 -38 41 -73 75
-76 75 -4 0 -7 -40 -7 -89z m50 -23 c0 -5 -4 -8 -10 -8 -5 0 -10 10 -10 23 0
18 2 19 10 7 5 -8 10 -18 10 -22z"/>
<path d="M1151 4193 c-24 -16 -24 -17 -4 -24 11 -4 32 -28 47 -54 15 -28 20
-45 12 -42 -41 16 -178 49 -183 44 -3 -3 15 -41 40 -84 32 -56 42 -82 35 -90
-14 -18 -3 -16 35 4 24 13 28 18 15 21 -9 2 -31 26 -48 53 -25 41 -27 50 -13
45 105 -29 176 -47 179 -43 2 2 -16 41 -41 86 -25 45 -43 86 -40 92 9 14 -8
11 -34 -8z"/>
<path d="M1610 4095 c-500 -79 -935 -507 -1135 -1119 -188 -573 -145 -1261
110 -1783 276 -567 734 -885 1239 -860 286 14 539 128 768 345 308 294 509
721 579 1232 17 121 17 485 1 610 -20 149 -59 329 -96 441 -253 772 -847 1231
-1466 1134z m347 -60 c219 -42 425 -151 604 -322 79 -76 202 -226 193 -236 -3
-3 -23 2 -45 11 -38 15 -45 14 -97 -3 -31 -10 -62 -23 -69 -27 -7 -6 -10 -37
-8 -86 1 -51 -3 -86 -12 -105 -10 -21 -11 -32 -3 -42 6 -7 14 -32 18 -56 7
-40 10 -44 41 -49 32 -5 33 -6 15 -22 -11 -9 -31 -20 -46 -23 -16 -4 -28 -11
-28 -15 0 -4 -11 -10 -25 -12 -20 -4 -26 0 -35 26 -15 42 -66 93 -109 107
l-35 12 37 18 c43 22 54 37 33 45 -13 5 -282 -68 -309 -84 -5 -2 -4 6 3 18 6
12 26 28 44 35 17 7 40 23 51 35 11 12 38 31 60 42 52 26 85 57 85 80 0 22 0
22 -52 -1 -109 -48 -133 -62 -213 -123 -16 -12 -25 -16 -19 -8 177 231 199
265 167 265 -5 0 -61 -48 -124 -108 -63 -59 -115 -103 -117 -97 -2 6 10 32 27
59 17 26 31 54 31 62 0 8 16 39 35 69 33 51 44 93 27 104 -11 7 -100 -98 -117
-138 -17 -40 -65 -114 -65 -99 0 5 9 58 20 118 24 132 26 175 5 175 -10 0 -29
-46 -61 -147 -26 -82 -51 -152 -55 -157 -9 -10 -15 119 -10 208 4 66 -7 116
-24 116 -9 0 -17 -15 -20 -37 -4 -21 -11 -51 -16 -67 -5 -16 -9 -70 -9 -120
l-1 -91 -47 145 c-35 104 -53 146 -65 148 -22 5 -22 -5 8 -176 14 -78 25 -145
25 -148 0 -17 -25 15 -43 55 -11 25 -30 60 -42 76 -13 17 -28 46 -34 66 -14
45 -57 87 -72 72 -8 -8 -6 -20 5 -41 9 -17 16 -41 16 -54 0 -13 20 -62 44
-111 l44 -87 -110 105 c-102 98 -127 114 -135 89 -2 -5 33 -56 77 -114 44 -58
90 -117 101 -133 l20 -27 -28 11 c-15 5 -39 21 -53 34 -14 12 -43 32 -66 43
-22 11 -46 28 -54 37 -17 20 -63 45 -85 45 -24 0 -17 -27 13 -48 15 -11 34
-32 42 -47 8 -15 30 -35 50 -45 19 -10 49 -30 65 -44 17 -14 34 -26 39 -26 5
0 7 -2 4 -5 -3 -3 -67 13 -142 36 -133 39 -181 44 -157 16 6 -8 72 -42 146
-77 88 -41 132 -67 126 -73 -6 -6 -25 -6 -53 1 -24 7 -90 13 -148 14 -87 3
-105 0 -105 -12 0 -8 13 -17 30 -20 17 -4 41 -13 55 -20 14 -7 72 -18 130 -24
l105 -12 -138 -27 c-76 -15 -146 -27 -155 -27 -9 0 -30 20 -45 45 -18 28 -36
45 -48 45 -10 0 -19 4 -19 9 0 5 -12 12 -27 16 -55 13 -70 42 -25 47 24 3 28
8 33 45 3 23 11 48 18 56 10 13 10 21 -2 44 -9 19 -13 54 -12 105 2 49 -1 80
-8 86 -7 5 -38 17 -70 27 -54 16 -62 16 -98 2 -21 -8 -41 -12 -44 -7 -8 13
103 146 196 236 189 181 401 290 639 327 65 11 255 6 327 -8z m-184 -603 c-7
-43 16 -154 31 -149 6 2 28 50 48 108 20 57 37 101 37 96 1 -4 -6 -50 -14
-103 -9 -53 -13 -99 -10 -102 18 -18 56 35 118 164 14 28 31 55 38 60 11 6 12
5 2 -7 -7 -9 -20 -35 -28 -59 -9 -24 -22 -51 -30 -60 -23 -25 -56 -133 -44
-145 6 -6 34 14 77 56 105 102 111 101 32 -4 -40 -54 -71 -100 -68 -102 9 -9
82 27 116 56 18 16 36 29 41 29 5 0 25 14 46 30 21 17 43 30 49 30 6 -1 -1 -8
-16 -16 -16 -8 -28 -19 -28 -24 0 -5 -18 -19 -41 -30 -47 -25 -132 -111 -120
-123 5 -5 55 5 112 22 57 16 105 29 106 27 2 -2 -37 -21 -86 -44 -118 -54
-129 -74 -38 -74 l42 0 -40 -19 c-22 -10 -46 -19 -53 -19 -29 0 -3 -25 38 -37
67 -20 72 -33 13 -33 -60 0 -73 -16 -34 -42 25 -17 23 -18 -111 -18 -75 0
-139 3 -141 8 -2 4 -7 24 -11 45 -7 36 -6 38 13 28 22 -12 106 -14 134 -2 18
6 18 7 0 23 -44 40 -103 48 -133 18 -15 -15 -20 -17 -20 -5 0 8 11 22 25 31
31 20 107 15 134 -10 22 -20 31 -20 31 -1 0 23 -54 45 -113 45 -44 0 -58 -4
-77 -25 -20 -22 -22 -31 -18 -90 5 -62 5 -65 -17 -65 -21 0 -22 3 -14 43 11
56 1 104 -24 122 -33 23 -128 20 -161 -6 -14 -11 -23 -25 -20 -30 4 -6 14 -3
25 7 27 24 103 30 134 10 14 -9 25 -21 25 -26 0 -6 -11 -3 -25 6 -32 21 -84
12 -114 -20 -19 -21 -20 -24 -6 -30 26 -10 104 -7 126 4 21 12 23 5 13 -49
l-6 -31 -132 0 c-122 1 -129 2 -103 16 15 8 27 22 27 30 0 14 -15 15 -122 10
l-123 -6 93 20 c51 10 101 22 112 25 33 11 23 34 -17 40 -21 3 -67 10 -103 15
-112 17 -117 19 -45 14 78 -5 198 -5 204 1 13 14 -21 37 -117 80 -61 27 -110
50 -109 52 2 1 54 -13 117 -32 63 -19 116 -35 118 -35 2 0 2 10 0 22 -2 12
-19 32 -38 44 -19 13 -48 34 -65 47 -16 13 -45 32 -62 41 -18 9 -33 22 -33 28
0 6 8 4 18 -5 10 -10 24 -17 30 -17 6 0 26 -13 45 -29 26 -23 136 -81 153 -81
18 0 -9 49 -77 138 l-82 107 96 -94 c54 -53 100 -91 106 -87 14 9 4 52 -19 86
-9 14 -22 40 -28 58 -6 18 -20 45 -32 59 -11 14 -20 33 -20 42 1 9 7 2 14 -15
8 -18 19 -35 26 -39 6 -4 20 -27 31 -51 19 -47 76 -124 91 -124 12 0 10 55 -7
150 -8 47 -15 87 -14 90 0 3 17 -42 37 -99 56 -158 71 -147 73 54 2 100 3 111
9 65 5 -30 6 -70 3 -88z m-856 22 c-3 -3 -12 -4 -19 -1 -8 3 -5 6 6 6 11 1 17
-2 13 -5z m1746 -1 c-7 -2 -19 -2 -25 0 -7 3 -2 5 12 5 14 0 19 -2 13 -5z
m-1769 -49 c3 -8 2 -12 -4 -9 -6 3 -10 10 -10 16 0 14 7 11 14 -7z m-10 -31
c23 -27 23 -27 30 -5 10 31 61 31 70 0 9 -37 7 -48 -9 -42 -9 4 -29 1 -46 -6
-28 -12 -29 -14 -13 -31 21 -23 40 -24 52 -4 7 13 10 11 20 -11 10 -21 10 -32
-2 -55 -8 -16 -12 -38 -9 -50 6 -20 4 -21 -32 -15 l-38 7 7 -32 c3 -18 15 -43
26 -54 24 -26 26 -81 5 -132 l-15 -36 -32 25 c-18 14 -50 46 -72 72 -36 42
-38 48 -27 70 12 22 15 42 12 96 -2 43 3 70 13 70 5 0 1 9 -8 19 -16 18 -16
20 8 44 17 18 23 31 19 47 -4 16 -3 21 5 16 7 -4 12 -15 12 -24 0 -11 3 -13
10 -6 12 12 3 44 -11 44 -5 0 -9 5 -9 10 0 16 10 12 34 -17z m1800 1 c-13 -19
-14 -28 -5 -37 8 -8 11 -7 11 5 0 9 5 20 11 24 8 4 9 -4 4 -27 -4 -19 -4 -31
0 -27 4 4 17 -5 28 -19 19 -24 19 -27 5 -36 -12 -8 -14 -16 -6 -39 6 -17 15
-25 21 -22 8 4 7 2 0 -7 -16 -17 -17 -101 -1 -117 8 -8 5 -21 -17 -51 -38 -56
-44 -59 -95 -52 -44 6 -45 7 -48 44 -3 29 3 45 22 68 38 45 35 69 -10 69 -34
0 -35 1 -29 30 4 17 2 30 -3 30 -17 0 -21 42 -7 69 11 19 14 21 15 9 0 -24 32
-23 54 1 16 17 15 19 -13 31 -17 7 -37 10 -46 6 -16 -6 -18 5 -9 42 8 30 59
32 67 2 6 -24 33 -17 42 11 4 10 11 19 16 19 5 0 2 -11 -7 -26z m-1977 -84
c-2 -59 -1 -62 35 -93 71 -62 61 -112 -24 -119 -144 -12 -202 -119 -210 -389
-4 -125 2 -133 90 -123 45 5 63 3 58 -4 -3 -6 -19 -53 -34 -105 -33 -109 -35
-198 -9 -457 11 -111 13 -187 7 -265 -9 -135 -50 -362 -62 -342 -35 64 -104
343 -129 527 -17 122 -17 477 0 600 29 219 97 466 175 634 51 111 95 196 101
196 2 0 3 -27 2 -60z m2245 -158 c123 -288 177 -564 178 -909 0 -278 -29 -476
-107 -726 -20 -64 -37 -116 -39 -114 -1 1 -14 61 -29 132 -35 176 -41 323 -21
511 24 225 22 328 -10 433 -15 47 -33 98 -40 112 -11 23 -11 29 1 39 7 6 29
55 47 108 28 83 32 111 33 196 l0 99 -37 30 c-29 23 -51 31 -93 35 -89 7 -97
51 -23 124 39 38 39 39 33 96 l-6 57 32 -55 c18 -30 54 -106 81 -168z m-2164
153 c0 -16 -2 -15 -8 5 -11 34 -11 60 0 35 5 -11 8 -29 8 -40z m17 45 c3 -5 1
-10 -4 -10 -6 0 -11 5 -11 10 0 6 2 10 4 10 3 0 8 -4 11 -10z m1955 0 c0 -5
-5 -10 -11 -10 -5 0 -7 5 -4 10 3 6 8 10 11 10 2 0 4 -4 4 -10z m14 -24 c-3
-15 -8 -25 -11 -23 -2 3 -1 17 3 31 3 15 8 25 11 23 2 -3 1 -17 -3 -31z m-451
-153 c-13 -2 -33 -2 -45 0 -13 2 -3 4 22 4 25 0 35 -2 23 -4z m52 -13 c3 -6
-1 -7 -9 -4 -18 7 -21 14 -7 14 6 0 13 -4 16 -10z m-163 -23 c-11 -12 -25 -33
-31 -47 -6 -16 -10 -19 -10 -8 -1 16 44 78 57 78 3 0 -4 -10 -16 -23z m-52 -7
c0 -5 -8 -10 -17 -10 -15 0 -16 2 -3 10 19 12 20 12 20 0z m124 -15 c-12 -19
-14 -36 -9 -77 4 -29 12 -61 17 -71 14 -26 3 -32 -32 -17 -36 15 -60 55 -60
100 0 37 47 90 79 90 21 0 21 -1 5 -25z m89 0 c14 -14 28 -37 31 -50 7 -29 -9
-75 -26 -75 -28 0 -39 19 -42 66 -1 27 -6 57 -10 67 -12 26 17 21 47 -8z m55
-20 c-3 -3 -9 2 -12 12 -6 14 -5 15 5 6 7 -7 10 -15 7 -18z m-121 -27 c-3 -8
-6 -5 -6 6 -1 11 2 17 5 13 3 -3 4 -12 1 -19z m130 -25 c-3 -10 -5 -4 -5 12 0
17 2 24 5 18 2 -7 2 -21 0 -30z m-1726 -10 c20 -62 52 -129 56 -117 2 6 -8 41
-22 78 -28 74 -27 101 1 42 23 -48 37 -47 18 2 l-15 37 28 -35 c59 -74 105
-118 135 -131 27 -11 32 -10 44 6 8 10 17 34 20 53 4 18 13 36 20 39 8 3 14
14 14 24 0 10 4 19 8 19 4 0 7 -17 5 -37 l-3 -38 14 35 14 35 1 -35 c1 -20 8
-60 17 -90 8 -30 17 -64 20 -76 4 -14 -5 -33 -29 -61 -25 -30 -36 -55 -41 -92
-4 -28 -11 -51 -16 -51 -5 0 -7 14 -3 30 3 19 1 30 -6 30 -6 0 -11 -13 -11
-30 0 -16 -4 -30 -10 -30 -5 0 -10 10 -10 23 0 15 -3 18 -8 9 -6 -9 -22 12
-49 65 l-41 78 -91 40 -91 40 0 45 c0 25 -3 56 -6 70 -6 25 -6 25 10 5 l17
-20 -4 20 c-3 11 -8 28 -12 38 -4 9 -3 17 3 17 6 0 16 -17 23 -37z m2079 11
c-17 -43 -10 -51 11 -11 11 20 24 37 29 37 16 0 12 -13 -18 -61 -48 -75 -54
-111 -8 -42 14 20 32 38 40 39 14 2 14 -2 0 -34 -8 -20 -17 -69 -21 -109 -3
-40 -8 -73 -11 -73 -3 0 -47 26 -98 57 l-93 57 30 15 c17 8 56 45 87 83 31 37
57 68 59 68 1 0 -2 -12 -7 -26z m-623 -16 c-3 -7 -5 -2 -5 12 0 14 2 19 5 13
2 -7 2 -19 0 -25z m-27 12 c0 -5 -7 -10 -16 -10 -8 0 -12 5 -9 10 3 6 10 10
16 10 5 0 9 -4 9 -10z m367 -12 c-3 -8 -6 -5 -6 6 -1 11 2 17 5 13 3 -3 4 -12
1 -19z m30 0 c-3 -8 -6 -5 -6 6 -1 11 2 17 5 13 3 -3 4 -12 1 -19z m-1893 -14
c8 -20 8 -89 0 -147 -6 -43 -9 -46 -30 -41 -27 7 -29 0 -10 -35 10 -18 11 -32
3 -58 -15 -48 -2 -56 103 -61 77 -4 94 -2 110 13 11 10 20 14 20 8 0 -6 11 -8
24 -6 15 3 25 -1 30 -12 10 -27 -2 -35 -52 -34 -26 1 -67 -4 -92 -9 -25 -6
-82 -14 -127 -18 -81 -6 -82 -6 -88 18 -9 37 12 247 30 303 29 86 63 120 79
79z m1034 9 c-10 -2 -26 -2 -35 0 -10 3 -2 5 17 5 19 0 27 -2 18 -5z m210 0
c-10 -2 -26 -2 -35 0 -10 3 -2 5 17 5 19 0 27 -2 18 -5z m1052 -14 c7 -13 9
-44 5 -87 -8 -75 -60 -249 -80 -271 -21 -21 -79 21 -203 145 -83 85 -108 104
-132 104 -16 0 -32 5 -35 10 -14 22 70 -1 119 -33 65 -43 216 -137 220 -137 2
0 7 33 10 73 17 170 62 261 96 196z m-580 -44 c16 -4 54 1 88 10 80 23 126 18
130 -14 4 -24 3 -24 -67 -18 -43 5 -72 3 -76 -3 -3 -5 -22 -10 -41 -10 -36 0
-84 36 -84 62 0 8 4 7 10 -4 6 -9 23 -19 40 -23z m-1220 -129 c0 -61 -2 -67
-15 -56 -11 9 -14 22 -10 42 4 18 1 42 -8 61 -9 18 -18 50 -22 72 l-7 40 31
-45 c27 -40 31 -53 31 -114z m1510 124 c0 -5 -9 -10 -21 -10 -11 0 -17 5 -14
10 3 6 13 10 21 10 8 0 14 -4 14 -10z m-1220 -25 c-10 -12 -39 -15 -141 -15
-150 0 -187 18 -47 23 51 1 117 4 147 5 46 2 52 0 41 -13z m740 7 c0 -5 -13
-7 -30 -4 -16 2 -30 6 -30 8 0 2 14 4 30 4 17 0 30 -4 30 -8z m180 -699 l0
-638 -24 -66 c-12 -36 -44 -99 -70 -139 -55 -85 -189 -226 -205 -216 -6 4 -11
1 -11 -8 0 -18 -102 -92 -178 -130 -62 -31 -111 -35 -164 -13 -80 34 -187 113
-283 211 -103 105 -148 169 -194 278 l-26 63 -3 648 -3 647 581 0 580 0 0
-637z m80 598 c0 -22 -6 -44 -15 -51 -13 -11 -15 -6 -15 39 0 39 4 51 15 51
11 0 15 -11 15 -39z m217 -68 c111 -114 119 -133 56 -133 -39 0 -43 2 -43 26
0 14 -4 23 -10 19 -5 -3 -10 -15 -10 -26 0 -12 -7 -19 -20 -19 -13 0 -20 7
-20 20 0 11 -5 20 -11 20 -6 0 -9 -9 -6 -20 3 -11 1 -20 -4 -20 -5 0 -9 11 -9
24 0 14 -4 28 -10 31 -6 4 -10 -6 -10 -24 0 -16 -4 -33 -10 -36 -6 -4 -10 14
-10 45 0 44 -5 58 -35 94 -20 25 -35 54 -35 70 0 24 3 26 45 26 45 0 48 -3
142 -97z m-1871 51 c70 -32 70 -32 58 -44 -9 -9 -131 15 -147 30 -11 9 3 40
18 40 7 0 39 -12 71 -26z m28 -91 c10 -26 -4 -33 -64 -33 -59 0 -60 0 -80 40
-11 21 -20 41 -20 43 0 12 159 -37 164 -50z m1673 19 c11 -15 24 -47 28 -69 5
-34 2 -50 -18 -85 -30 -52 -78 -216 -71 -243 3 -11 1 -38 -5 -60 -6 -29 -9 26
-10 199 -1 233 0 240 21 263 27 29 30 29 55 -5z m-1359 2 c22 -15 22 -19 22
-241 0 -125 -2 -224 -5 -221 -3 3 -6 27 -6 54 -1 59 -44 216 -72 262 -23 39
-18 113 10 144 20 22 23 22 51 2z m1672 -110 c0 -2 -7 -4 -15 -4 -8 0 -15 4
-15 10 0 5 7 7 15 4 8 -4 15 -8 15 -10z m-1857 -76 c-9 -16 -34 -7 -42 15 -7
16 -5 25 7 35 14 10 18 8 28 -15 6 -16 9 -31 7 -35z m-89 36 c16 -16 21 -34
10 -34 -18 0 -84 24 -84 31 0 7 21 15 47 18 6 0 19 -6 27 -15z m1786 -8 c0
-14 5 -28 10 -31 6 -4 10 7 10 24 0 30 2 31 44 31 41 0 44 -2 50 -31 3 -17 3
-42 0 -55 -4 -15 -2 -24 5 -24 7 0 11 20 11 50 0 46 2 50 24 50 19 0 29 -13
56 -67 19 -37 35 -62 37 -56 2 6 -5 30 -16 52 -22 42 -30 90 -11 61 15 -23 72
-211 66 -217 -10 -10 -36 19 -36 38 0 11 -5 19 -11 19 -7 0 -9 -9 -5 -24 5
-20 1 -25 -20 -30 -33 -9 -44 -1 -44 33 0 43 -11 91 -22 91 -5 0 -6 -22 -2
-50 4 -34 3 -55 -6 -65 -21 -25 -30 -17 -30 26 0 24 -4 38 -10 34 -5 -3 -10
-22 -10 -41 0 -33 -1 -34 -40 -34 l-40 0 -2 43 c-1 23 -1 52 0 65 0 12 -3 22
-9 22 -5 0 -9 -27 -9 -60 l0 -60 -25 10 c-20 8 -27 6 -31 -5 -13 -34 -24 -11
-25 53 0 70 -17 63 -18 -8 -1 -33 -3 -35 -36 -36 -28 0 -35 3 -30 14 3 8 13
44 22 79 17 69 52 127 53 88 0 -12 -5 -26 -11 -32 -7 -7 -7 -13 0 -17 6 -4 15
11 22 34 9 28 18 40 31 40 10 0 18 -7 19 -17 0 -14 3 -13 11 5 14 29 28 28 28
-2z m-1634 -3 c8 -11 13 -13 14 -5 0 21 19 13 34 -16 8 -15 22 -56 30 -90 9
-34 19 -69 23 -79 6 -16 5 -16 -10 -4 -10 8 -27 11 -42 7 -24 -6 -25 -5 -25
49 0 30 -4 55 -9 55 -5 0 -6 -29 -3 -65 5 -66 -6 -85 -27 -47 -6 9 -11 12 -11
7 0 -6 -9 -11 -20 -11 -18 0 -20 7 -20 58 0 78 -18 74 -22 -4 l-3 -63 -37 -3
c-36 -3 -38 -1 -38 25 0 15 -5 35 -10 43 -7 11 -10 3 -10 -28 0 -36 -3 -43
-17 -40 -15 3 -18 14 -17 66 1 60 -7 79 -20 46 -3 -9 -6 -32 -6 -52 0 -51 -12
-66 -45 -58 -24 6 -26 10 -22 42 3 19 16 60 28 90 27 61 18 59 131 28 83 -22
118 -12 118 36 0 33 16 39 36 13z m-286 -22 c0 -10 -7 -36 -16 -57 -9 -22 -22
-59 -29 -84 -7 -27 -18 -46 -27 -48 -14 -3 -12 11 12 88 16 50 31 98 34 106 8
20 26 17 26 -5z m360 -255 c0 -36 5 -68 10 -71 6 -4 10 18 11 57 l1 63 13 -65
c17 -87 25 -205 29 -440 3 -171 2 -188 -8 -138 -16 73 -31 89 -22 23 32 -244
47 -595 26 -595 -5 0 -10 20 -10 45 0 25 -4 45 -10 45 -5 0 -10 -23 -10 -51
l0 -51 -29 5 c-21 4 -37 0 -54 -13 l-24 -19 -7 67 c-3 37 -6 148 -7 247 0 177
-7 233 -23 206 -5 -7 -6 -38 -2 -69 3 -32 8 -154 10 -272 3 -205 3 -210 -8
-107 -6 60 -14 106 -17 102 -4 -3 -4 -53 -1 -110 l5 -104 -37 2 -36 2 0 152
c0 103 -4 154 -11 159 -9 5 -10 -33 -5 -148 5 -102 4 -158 -2 -162 -13 -8
-104 22 -114 38 -4 6 -8 31 -8 56 0 33 -3 41 -10 30 -6 -8 -8 -37 -4 -65 7
-61 -1 -55 -49 35 l-35 65 33 163 c19 89 39 221 45 293 13 155 3 552 -13 523
-6 -11 -8 -89 -4 -208 8 -234 -5 -408 -44 -589 -16 -76 -29 -141 -29 -145 0
-4 -9 11 -19 33 -18 41 -18 42 11 180 38 185 47 409 24 607 -26 226 -22 268
31 268 20 0 23 -5 23 -34 0 -19 5 -38 10 -41 6 -4 10 8 10 28 0 27 5 36 23 41
44 12 47 8 49 -56 l2 -63 3 55 c3 30 8 57 13 60 6 3 26 4 45 2 33 -4 35 -6 35
-44 0 -23 4 -37 10 -33 6 3 10 22 10 41 0 28 5 36 25 44 51 19 55 9 55 -130 0
-134 8 -220 20 -220 4 0 5 75 2 166 l-5 167 24 18 c41 32 49 25 49 -45z m1459
45 l24 -19 -6 -168 c-5 -118 -4 -165 4 -157 6 6 12 79 15 174 2 90 8 167 13
172 5 5 27 3 50 -4 l41 -12 1 -111 c1 -120 11 -107 24 32 7 77 16 95 42 85 9
-3 13 -23 13 -59 0 -72 17 -70 19 2 0 31 3 60 6 64 3 5 19 3 35 -3 30 -11 30
-12 29 -87 0 -41 -4 -124 -9 -185 -11 -141 9 -406 50 -649 16 -98 32 -181 35
-184 2 -3 -14 -41 -38 -85 l-42 -79 -3 61 c-4 75 -22 81 -22 8 l0 -54 -51 -16
c-28 -10 -56 -17 -62 -17 -7 0 -8 52 -4 160 3 88 2 160 -2 160 -14 0 -21 -58
-21 -184 l0 -122 -29 -11 c-17 -6 -32 -9 -34 -7 -2 3 -3 57 -1 122 3 78 1 110
-5 97 -5 -11 -10 -57 -10 -102 -1 -45 -6 -85 -11 -88 -7 -4 -9 19 -6 72 13
196 17 478 6 467 -7 -7 -13 -103 -17 -258 -3 -136 -10 -249 -15 -252 -5 -3
-17 1 -26 9 -11 10 -27 13 -44 10 -27 -5 -28 -4 -28 40 0 25 -4 49 -10 52 -6
4 -10 -12 -10 -39 0 -68 -17 -56 -25 17 -7 65 19 430 35 501 13 56 13 83 -1
69 -19 -19 -39 -186 -45 -378 -4 -104 -9 -205 -13 -223 -5 -29 -8 -31 -24 -20
-17 12 -17 16 -2 57 8 25 15 77 15 120 0 43 9 149 19 237 11 87 22 258 26 379
7 225 25 389 44 408 8 8 11 -8 11 -57 0 -42 4 -65 10 -61 6 3 10 35 10 71 0
35 3 64 8 64 4 0 18 -9 31 -19z m392 -28 c8 -21 6 -82 -11 -245 -25 -255 -22
-340 21 -576 28 -150 29 -166 16 -200 -18 -44 -17 -46 -51 143 -36 197 -47
375 -44 659 l3 246 28 0 c21 0 30 -7 38 -27z m-1750 -943 c1 -67 8 -126 19
-162 17 -56 17 -56 -5 -66 l-22 -10 -6 176 c-4 98 -9 209 -11 247 l-5 70 14
-75 c8 -41 15 -122 16 -180z m1173 -27 c-2 -56 -10 -117 -18 -142 -21 -58 -21
-58 15 -80 28 -17 29 -19 9 -24 -16 -4 -21 -12 -18 -29 3 -22 6 -23 123 -26
94 -2 123 -6 138 -19 15 -14 22 -15 37 -5 11 6 32 9 47 6 16 -3 48 1 73 10 55
19 60 19 60 3 0 -26 -161 -226 -253 -314 -459 -439 -1054 -450 -1541 -29 -100
87 -298 337 -277 350 5 3 30 -2 55 -10 26 -9 59 -14 73 -11 15 3 37 0 50 -6
18 -8 27 -7 41 6 15 14 41 17 135 17 67 0 118 4 122 10 10 17 -5 50 -23 50
-12 0 -10 4 8 17 38 26 39 30 18 96 -13 43 -18 84 -16 134 l3 74 54 -83 c138
-208 403 -401 528 -384 139 19 382 212 504 401 30 46 54 84 55 84 0 1 -1 -43
-2 -96z m-1211 -258 c75 -10 54 -20 -34 -17 -64 3 -78 6 -70 16 6 7 21 12 34
10 12 -2 43 -6 70 -9z m1316 -15 c-75 -5 -87 -4 -77 5 12 12 124 21 137 11 11
-8 -4 -12 -60 -16z"/>
<path d="M1690 3180 c-19 -5 -45 -6 -57 -3 -17 4 -23 1 -23 -10 0 -11 12 -17
38 -20 l37 -4 -37 -1 c-21 -1 -38 -6 -38 -10 0 -4 70 -8 155 -8 85 -1 155 2
155 7 0 4 -21 10 -47 12 l-48 3 48 2 c32 1 47 6 47 16 0 9 -14 13 -47 13 -27
0 -70 3 -98 6 -27 3 -66 2 -85 -3z m33 -27 c-7 -2 -19 -2 -25 0 -7 3 -2 5 12
5 14 0 19 -2 13 -5z"/>
<path d="M1212 2253 l3 -578 558 -3 557 -2 0 580 0 580 -560 0 -560 0 2 -577z
m161 512 c27 -38 14 -71 -36 -88 -23 -8 -50 -18 -59 -22 -16 -6 -18 0 -18 64
l0 71 48 0 c38 -1 50 -5 65 -25z m330 5 c3 -12 0 -20 -7 -20 -34 0 -188 -23
-233 -34 l-52 -14 6 31 c5 22 1 33 -12 44 -16 11 4 13 137 13 147 0 156 -1
161 -20z m517 -46 c0 -59 -2 -65 -17 -59 -95 36 -324 84 -408 85 -16 0 -41 9
-55 20 -25 20 -25 20 228 20 l252 0 0 -66z m60 -10 c0 -66 -2 -75 -17 -72 -15
3 -19 16 -21 76 -3 67 -1 72 18 72 18 0 20 -6 20 -76z m-525 -27 c21 -32 33
-37 110 -41 l40 -2 -1 -73 c-2 -90 -16 -111 -63 -92 -16 7 -38 10 -48 7 -31
-9 -45 7 -34 38 6 14 18 29 26 32 21 8 19 21 -5 29 -13 4 -23 18 -27 36 -7 34
-18 37 -34 8 -9 -17 -17 -20 -41 -15 -26 5 -29 3 -23 -12 14 -33 15 -47 5 -62
-8 -13 -12 -12 -25 8 -9 12 -23 22 -31 22 -9 0 -14 11 -14 35 0 36 -19 55 -69
70 l-24 7 8 -76 c6 -71 5 -76 -12 -76 -11 0 -38 21 -61 46 -76 84 -52 101 188
138 14 2 45 4 70 4 40 1 47 -2 65 -31z m220 7 c39 -7 109 -26 158 -40 l87 -27
0 -58 c0 -58 0 -59 -96 -188 l-95 -129 -71 -4 c-60 -3 -74 -7 -92 -29 -35 -41
-68 -51 -104 -29 -17 11 -43 17 -59 16 -15 -2 -33 -4 -39 -5 -7 0 -14 -10 -17
-21 -5 -19 -7 -19 -41 -5 -28 12 -36 12 -36 3 0 -7 -12 -21 -26 -31 -30 -22
-49 -11 -71 40 -17 42 -17 41 13 45 37 4 52 30 35 61 -7 14 -10 30 -7 36 9 14
8 14 -89 -4 -44 -8 -99 -14 -122 -15 l-43 0 0 74 0 73 39 7 c28 4 48 17 74 45
l35 39 36 -26 c31 -21 41 -24 64 -16 26 10 27 12 24 72 -2 52 0 61 13 56 8 -4
15 -18 15 -34 0 -41 10 -60 30 -60 10 0 21 -8 24 -18 4 -11 18 -30 32 -43 22
-21 36 -24 102 -25 43 -1 89 -5 104 -9 21 -6 32 -2 51 18 20 20 26 38 32 100
4 42 5 83 2 90 -3 9 -29 16 -72 20 -65 6 -95 19 -95 39 0 12 102 3 205 -18z
m-611 -59 c-4 -17 -1 -32 9 -43 15 -16 13 -20 -16 -55 -18 -21 -47 -42 -64
-47 l-33 -9 0 68 0 68 53 21 c28 11 53 21 55 21 1 1 0 -10 -4 -24z m916 -59
c0 -19 -4 -23 -20 -19 -14 4 -20 14 -20 35 0 26 2 28 20 18 11 -6 20 -21 20
-34z m-545 -19 c-8 -18 -35 -12 -35 8 0 16 22 26 33 15 4 -3 5 -14 2 -23z
m545 -157 l0 -130 -67 1 c-38 1 -81 4 -96 8 l-28 6 75 100 c42 55 76 110 76
123 0 15 6 22 20 22 19 0 20 -7 20 -130z m-556 105 c18 -13 17 -14 -8 -21 -26
-6 -56 8 -56 27 0 14 43 10 64 -6z m-224 -236 c0 -4 -15 -9 -32 -11 -43 -4
-46 -26 -13 -94 28 -57 62 -78 89 -55 12 10 15 8 18 -11 2 -15 11 -24 26 -26
30 -5 29 -44 -3 -86 -29 -39 -30 -43 -9 -48 11 -2 22 -24 33 -68 11 -43 21
-65 31 -66 8 0 23 -4 33 -9 11 -5 24 -2 36 9 23 21 31 12 31 -41 l0 -43 -240
0 -240 0 0 280 0 280 43 1 c23 1 71 6 107 13 55 10 67 10 78 -3 6 -8 12 -18
12 -22z m778 -286 l2 -263 -255 0 -255 0 0 50 c0 28 5 50 10 50 6 0 10 7 10
15 0 8 4 15 9 15 6 0 7 16 4 36 -5 27 -2 39 10 45 8 5 18 26 22 47 3 21 16 50
29 63 16 17 25 42 29 82 3 33 2 57 -4 57 -5 0 -9 5 -9 11 0 19 71 41 115 34
32 -4 45 -2 55 10 11 13 32 15 119 13 l106 -3 3 -262z m-564 168 c-18 -30 -39
-41 -82 -41 -13 0 -20 -4 -17 -10 3 -6 -1 -7 -9 -4 -17 7 -19 14 -10 38 5 14
9 14 34 1 38 -20 40 -19 40 8 0 30 7 37 37 37 24 0 24 0 7 -29z m102 -2 c42
19 50 14 46 -24 -5 -39 -6 -40 -53 -23 -36 12 -49 24 -49 47 0 11 3 11 15 1
12 -10 21 -10 41 -1z m-61 -71 c7 -4 10 -18 8 -31 -4 -19 -11 -24 -34 -23 -19
1 -29 6 -29 17 0 8 -5 20 -12 27 -9 9 -7 12 9 12 11 0 24 8 28 18 6 14 8 15
13 2 3 -8 10 -18 17 -22z m69 -35 c-7 -16 -14 -36 -14 -45 0 -9 -4 -20 -10
-23 -20 -12 -10 49 12 72 28 30 30 29 12 -4z m-170 -40 l-6 -44 37 15 c32 14
40 14 64 1 27 -13 28 -17 23 -67 -5 -54 -16 -72 -41 -63 -7 3 -20 0 -28 -7
-12 -10 -17 -9 -24 5 -6 9 -16 17 -24 17 -14 0 -38 57 -30 70 3 4 -2 13 -10
20 -13 11 -12 15 5 37 11 14 20 37 20 50 0 14 4 22 10 18 7 -4 8 -24 4 -52z"/>
<path d="M1690 2402 c0 -19 -8 -35 -22 -45 l-23 -15 27 -11 c15 -5 33 -22 41
-36 l14 -27 16 26 c12 17 27 26 43 26 26 0 26 1 10 25 -10 16 -14 34 -10 50 6
23 4 25 -24 19 -16 -3 -39 -1 -51 5 -19 11 -21 9 -21 -17z m61 -42 c8 -19 -11
-32 -28 -19 -14 12 -6 39 10 36 7 -1 15 -9 18 -17z"/>
<path d="M1510 1916 c-8 -17 -22 -26 -37 -26 -26 0 -27 -3 -11 -33 7 -12 11
-32 9 -44 -2 -20 1 -22 27 -17 16 3 39 1 51 -5 19 -11 21 -9 21 17 0 16 7 35
15 42 22 18 19 29 -10 36 -14 3 -25 9 -25 13 0 4 -6 15 -13 25 -12 16 -14 16
-27 -8z m34 -70 c-7 -17 -41 -14 -41 4 0 8 5 18 11 22 14 9 36 -10 30 -26z"/>
<path d="M1942 1894 c-15 -10 -32 -14 -48 -10 -23 6 -25 5 -18 -16 8 -26 8
-34 -1 -65 -6 -18 -4 -21 14 -16 15 4 30 -2 45 -16 l24 -22 10 29 c6 17 20 33
33 37 l23 8 -26 21 c-14 11 -28 31 -30 44 -3 22 -4 22 -26 6z m11 -71 c-6 -15
-13 -16 -31 -4 -19 11 -17 24 5 32 20 7 34 -7 26 -28z"/>
<path d="M1222 1595 c18 -114 92 -239 218 -365 114 -114 265 -210 330 -210 63
0 222 104 338 221 121 121 197 251 217 367 l7 42 -560 0 -559 0 9 -55z m109
-99 c19 -57 30 -102 26 -99 -14 8 -87 165 -87 185 0 10 6 18 13 18 8 0 27 -42
48 -104z m76 69 c1 -16 9 -52 16 -80 24 -84 6 -74 -29 16 -40 101 -40 101 -11
97 17 -2 23 -10 24 -33z m87 13 c3 -13 5 -45 5 -73 0 -37 -3 -45 -9 -30 -5 11
-9 35 -9 53 -1 18 -6 42 -11 53 -8 15 -7 19 3 19 8 0 17 -10 21 -22z m214 -5
c0 -36 -16 -57 -33 -43 -8 6 -30 8 -54 4 -37 -6 -41 -10 -41 -34 0 -16 -3 -36
-6 -45 -5 -11 0 -18 15 -22 19 -5 21 -12 21 -92 0 -101 13 -132 58 -146 30 -9
32 -12 32 -57 0 -55 0 -55 -82 0 -32 21 -38 30 -38 61 0 20 -7 90 -15 156 -8
66 -18 148 -21 183 l-7 62 85 0 86 0 0 -27z m292 25 c0 -2 -11 -99 -24 -217
-16 -136 -29 -219 -38 -227 -7 -7 -37 -26 -65 -43 l-53 -30 0 59 c0 56 2 60
23 60 12 0 33 7 45 16 19 13 22 24 22 85 0 55 3 69 15 69 19 0 20 39 1 46 -8
3 -13 11 -10 18 7 18 -22 40 -38 29 -7 -4 -23 -8 -35 -8 -17 -1 -23 5 -23 21
0 12 7 24 15 28 19 7 19 33 0 43 -9 5 -12 17 -8 31 5 21 11 22 89 22 46 0 84
-1 84 -2z m64 -20 c-4 -13 -7 -33 -6 -45 1 -11 -5 -38 -13 -60 l-15 -38 5 40
c2 22 5 59 5 83 0 31 4 42 16 42 11 0 14 -6 8 -22z m95 -30 c-11 -29 -29 -71
-40 -93 l-19 -40 6 45 c4 25 10 53 15 62 5 9 9 30 9 47 0 26 4 31 25 31 l25 0
-21 -52z m97 -12 c-20 -55 -81 -166 -92 -166 -2 0 29 97 71 218 2 6 13 12 25
12 19 0 19 -1 -4 -64z m-466 17 c0 -7 8 -17 18 -23 14 -9 14 -11 1 -7 -9 3
-21 1 -26 -4 -6 -6 -18 -6 -34 0 -13 5 -18 10 -10 10 8 1 11 8 9 19 -4 12 1
17 19 17 12 0 23 -5 23 -12z m-131 -70 c7 -8 8 -13 1 -13 -5 0 -10 -8 -10 -17
0 -15 -2 -15 -9 -4 -5 8 -16 11 -26 7 -15 -5 -16 -4 -6 8 7 8 10 19 8 23 -9
14 29 10 42 -4z m48 -125 c-2 -24 -4 -7 -4 37 0 44 2 63 4 43 2 -21 2 -57 0
-80z m83 1 c0 -79 3 -99 14 -99 35 0 46 13 46 52 0 36 1 38 16 24 10 -11 14
-30 12 -58 -3 -43 -3 -43 -45 -46 l-43 -3 0 -80 0 -79 -30 0 -30 0 0 75 0 75
-33 0 c-50 0 -57 14 -57 107 0 67 3 83 15 83 11 0 15 -12 15 -48 0 -51 12 -72
42 -72 14 0 18 8 18 38 0 20 3 60 6 88 6 47 8 50 30 46 23 -4 24 -7 24 -103z
m100 47 c0 -6 -5 -18 -10 -26 -7 -12 -10 -12 -10 -1 0 7 -6 11 -12 8 -8 -3
-13 4 -13 17 0 18 5 21 23 18 12 -2 22 -9 22 -16z m240 -37 c-20 -53 -50 -108
-35 -64 21 60 48 125 52 122 2 -3 -5 -29 -17 -58z m-707 -16 c14 -35 24 -63
21 -63 -5 0 -37 72 -49 110 -13 43 2 18 28 -47z m124 -115 c-3 -7 -5 -2 -5 12
0 14 2 19 5 13 2 -7 2 -19 0 -25z m440 -40 c-3 -7 -5 -2 -5 12 0 14 2 19 5 13
2 -7 2 -19 0 -25z"/>
<path d="M820 2040 c0 -61 -4 -152 -9 -203 -5 -51 -13 -148 -16 -217 -5 -100
-4 -123 6 -113 9 9 15 70 21 190 4 98 11 223 16 278 10 105 6 175 -9 175 -5 0
-9 -50 -9 -110z"/>
<path d="M2737 1978 c-3 -24 1 -115 8 -203 8 -88 15 -207 15 -265 1 -99 10
-155 22 -134 3 5 1 74 -3 154 -5 80 -11 223 -15 318 -7 170 -16 213 -27 130z"/>
<path d="M2519 1844 c-10 -26 -14 -84 -33 -401 -3 -46 -2 -83 3 -83 4 0 13 89
20 198 7 108 17 221 23 250 11 61 4 79 -13 36z"/>
<path d="M1073 992 l-43 -3 3 -147 2 -147 47 -3 c39 -3 47 -7 50 -25 2 -17 10
-22 33 -23 64 -3 65 -3 65 -32 l0 -29 538 1 537 1 3 28 c3 27 6 28 67 31 23 1
31 6 33 24 3 19 9 22 46 22 l43 0 5 68 c3 37 5 103 4 147 l-1 80 -46 6 c-25 4
-79 6 -119 5 -74 -1 -75 -1 -78 -29 -3 -23 -7 -26 -28 -21 -29 7 -54 -10 -54
-39 0 -18 -4 -19 -62 -11 -35 4 -79 7 -98 5 -47 -4 -107 -4 -155 -1 -36 2 -68
3 -170 1 -16 0 -98 -1 -181 -3 l-151 -3 -11 28 c-10 25 -15 29 -42 25 -26 -4
-30 -2 -30 19 0 13 -3 24 -7 24 -23 4 -164 5 -200 1z m58 -36 c-9 -10 -10 -46
-5 -125 l7 -111 -35 0 -35 0 -1 117 c-2 126 1 133 52 133 23 0 26 -2 17 -14z
m1335 2 c10 -16 14 -121 7 -185 -5 -50 -7 -53 -34 -53 l-28 0 -3 125 -3 125
27 0 c15 0 30 -5 34 -12z m-1238 -171 l4 -123 -41 4 -41 4 0 119 0 119 38 0
37 0 3 -123z m1162 4 l0 -119 -40 -4 -40 -4 0 123 0 123 40 0 40 0 0 -119z
m-795 77 c42 1 280 1 350 1 22 0 58 0 80 1 74 2 220 -2 238 -6 15 -5 17 -20
17 -132 l0 -127 -93 4 c-135 5 -220 6 -332 3 -55 -1 -167 -1 -250 -1 -82 0
-196 -1 -253 -3 l-102 -3 0 132 0 131 73 -3 c39 -1 92 1 117 5 25 5 61 6 80 3
19 -4 53 -6 75 -5z"/>
<path d="M1305 763 c-4 -31 -11 -67 -16 -80 -7 -20 -5 -23 14 -23 20 0 23 4
19 35 -2 19 0 35 5 35 5 0 17 -16 26 -35 9 -19 20 -35 24 -35 5 0 18 22 30 48
l21 47 2 -40 c1 -22 2 -43 1 -47 0 -5 16 -7 37 -7 20 1 30 3 21 6 -11 3 -19
20 -23 56 -9 68 -17 97 -25 97 -4 0 -18 -24 -33 -52 l-25 -53 -27 53 c-14 28
-30 52 -35 52 -5 0 -12 -26 -16 -57z"/>
<path d="M1532 804 c-32 -22 -43 -57 -31 -94 14 -38 36 -50 92 -50 32 0 47 5
51 16 9 23 1 28 -23 13 -51 -32 -111 35 -77 86 20 30 73 35 83 8 6 -15 7 -14
13 3 4 10 6 22 3 27 -8 13 -88 7 -111 -9z"/>
<path d="M1686 793 c-3 -16 -8 -46 -12 -68 -4 -22 -11 -46 -17 -52 -7 -10 -1
-13 24 -13 22 0 29 3 21 9 -10 6 -11 17 -5 41 l9 33 18 -42 c11 -22 23 -41 28
-41 5 0 17 18 25 40 18 44 33 38 33 -12 0 -27 2 -28 50 -28 36 0 50 4 50 14 0
7 6 19 13 25 11 8 17 5 27 -14 12 -23 19 -25 84 -25 53 1 67 3 54 11 -14 8
-18 23 -18 69 0 94 23 90 69 -13 17 -37 34 -67 38 -67 4 0 23 33 42 73 19 39
37 75 39 80 2 4 -8 7 -22 7 -17 0 -25 -5 -24 -17 0 -10 -6 -34 -15 -53 l-15
-34 -16 39 c-9 21 -14 45 -12 52 4 10 -12 13 -66 13 -56 0 -69 -3 -60 -12 7
-7 12 -39 12 -75 0 -55 -2 -63 -19 -63 -18 0 -61 54 -61 77 0 6 11 22 25 37
31 34 31 36 -1 36 -14 0 -23 -3 -20 -8 2 -4 -2 -15 -9 -25 -11 -15 -14 -15
-25 -3 -6 9 -9 20 -5 26 4 6 -7 10 -29 10 -36 0 -48 -13 -22 -23 8 -3 22 -19
30 -35 14 -28 14 -31 -13 -62 -15 -18 -32 -30 -38 -27 -6 4 -14 38 -18 77 -4
38 -11 70 -16 70 -5 0 -21 -24 -35 -52 l-27 -53 -25 53 c-15 28 -29 52 -33 52
-4 0 -10 -12 -13 -27z"/>
<path d="M852 3980 c-28 -12 -122 -90 -122 -101 0 -5 6 -6 13 -3 8 3 37 -22
70 -59 50 -57 55 -66 41 -78 -13 -11 -31 -8 -112 19 -53 17 -98 29 -101 26 -3
-2 15 -44 39 -92 25 -48 44 -95 42 -104 -3 -27 12 -22 38 14 18 24 19 30 6 25
-12 -5 -20 1 -28 19 -10 21 -9 28 8 44 18 18 22 18 48 5 28 -15 28 -15 107 64
75 74 79 81 79 123 0 35 -6 50 -27 70 -33 31 -69 41 -101 28z m76 -66 c26 -29
28 -61 6 -92 -23 -33 -44 -26 -97 33 l-48 54 33 21 c40 25 74 20 106 -16z
m-200 -193 c11 -6 10 -10 0 -19 -11 -8 -17 -6 -26 9 -10 15 -10 19 0 19 7 0
19 -4 26 -9z"/>
<path d="M2714 3965 c5 -16 -8 -34 -53 -79 -33 -32 -64 -55 -70 -52 -29 19 -5
-17 43 -63 47 -44 61 -51 94 -51 70 0 122 67 100 131 -11 31 -123 143 -114
114z m60 -77 c26 -37 20 -83 -15 -112 -38 -32 -60 -33 -96 -2 l-28 25 55 55
c30 31 58 56 62 56 4 0 14 -10 22 -22z"/>
<path d="M2896 3778 c7 -21 -113 -120 -138 -114 -14 3 -10 -7 15 -41 37 -52
48 -59 74 -44 17 10 16 10 -4 11 -12 0 -27 8 -32 19 -8 14 -5 23 14 41 21 19
27 21 40 10 9 -7 14 -19 11 -27 -7 -16 4 -16 26 0 15 12 15 14 -3 25 -25 16
-24 36 4 55 21 14 24 13 36 -4 6 -11 9 -24 6 -29 -9 -15 11 -12 23 3 8 9 -1
25 -34 62 -24 28 -41 43 -38 33z"/>
<path d="M555 3645 c-30 -15 -105 -112 -105 -136 0 -10 3 -10 11 -2 15 15 149
-72 149 -96 1 -20 43 28 71 81 35 67 16 128 -48 154 -40 17 -41 17 -78 -1z
m89 -60 c30 -28 33 -64 8 -95 l-18 -23 -68 46 -68 45 25 26 c34 34 84 35 121
1z"/>
<path d="M3030 3580 c-13 -8 -12 -12 8 -25 12 -9 22 -22 22 -28 0 -20 -124
-89 -145 -81 -16 6 -15 2 6 -36 18 -32 25 -38 27 -24 2 11 30 34 69 57 52 29
69 35 80 25 8 -6 12 -20 10 -30 -6 -20 1 -22 21 -9 11 6 4 25 -30 84 -23 42
-45 76 -48 77 -3 0 -12 -5 -20 -10z"/>
<path d="M408 3442 c-22 -37 -22 -42 -3 -42 25 0 155 -69 155 -83 1 -12 23 13
42 46 8 16 7 18 -11 12 -25 -8 -158 59 -163 82 -2 9 -9 4 -20 -15z"/>
<path d="M3145 3408 c3 -8 -21 -26 -61 -47 -70 -36 -91 -63 -80 -106 17 -67
75 -82 165 -40 42 20 56 23 63 13 12 -19 11 8 -2 31 -8 16 -14 15 -80 -17 -60
-30 -74 -34 -95 -24 -30 14 -34 51 -7 74 27 24 111 58 128 51 14 -5 14 -2 0
32 -9 21 -16 39 -16 41 0 2 -4 4 -10 4 -5 0 -7 -6 -5 -12z"/>
<path d="M346 3322 c-32 -62 14 -105 81 -77 45 19 72 19 79 0 8 -20 -13 -45
-40 -45 -20 -1 -20 -1 2 -14 23 -12 23 -13 -28 -35 -43 -18 -54 -20 -61 -9 -5
7 -9 16 -9 21 0 12 -48 27 -66 20 -9 -3 -27 -30 -40 -60 -28 -63 -31 -81 -9
-63 12 10 29 7 90 -15 43 -16 75 -33 75 -41 0 -25 16 -14 28 19 15 40 16 69 3
48 -10 -16 -74 -5 -68 12 1 5 24 16 50 24 41 12 49 19 72 64 54 108 15 157
-89 114 -41 -17 -56 -13 -56 16 0 17 11 24 33 20 14 -2 7 17 -9 23 -22 9 -22
9 -38 -22z m12 -195 c6 -7 7 -18 3 -26 -7 -11 -16 -11 -45 -1 -30 10 -35 14
-25 26 14 18 53 18 67 1z"/>
<path d="M3132 3145 c-37 -31 -47 -71 -31 -124 16 -52 29 -64 60 -52 17 7 19
10 7 10 -22 1 -48 39 -48 69 0 13 13 37 30 53 24 25 37 30 67 27 33 -3 41 -8
57 -41 17 -36 17 -39 1 -58 -17 -18 -17 -19 4 -19 29 0 36 23 22 72 -26 85
-107 115 -169 63z"/>
<path d="M208 2950 c-9 -33 -12 -60 -8 -60 5 0 10 5 12 10 2 7 37 0 92 -18
l88 -29 10 26 c5 14 12 40 15 57 4 26 1 32 -16 37 -21 5 -29 -7 -12 -17 15 -9
0 -46 -18 -46 -27 0 -61 12 -61 20 0 5 7 16 17 25 14 14 14 18 2 26 -22 14
-29 11 -29 -15 0 -31 -12 -39 -43 -27 -19 7 -24 15 -20 30 3 12 10 21 15 21 5
0 6 5 3 10 -15 24 -32 6 -47 -50z"/>
<path d="M3319 2981 c-3 -7 -29 -18 -59 -26 -81 -21 -105 -43 -104 -96 1 -31
7 -47 24 -61 26 -21 48 -22 135 -6 62 12 64 13 58 38 -8 34 -11 36 -26 17 -14
-18 -126 -44 -150 -34 -26 10 -22 64 5 78 34 18 118 38 134 32 12 -4 14 0 8
23 -8 34 -20 51 -25 35z"/>
<path d="M180 2853 c0 -11 25 -34 62 -58 l61 -39 -29 -8 c-16 -4 -50 -9 -76
-10 -35 -2 -48 -6 -48 -18 0 -8 -3 -26 -6 -40 -5 -23 -4 -23 8 -8 9 11 48 23
109 34 52 9 97 20 102 23 4 4 -30 34 -75 66 -46 33 -84 63 -86 67 -7 15 -22 8
-22 -9z"/>
<path d="M3190 2705 c0 -14 5 -25 10 -25 6 0 10 5 10 10 0 6 24 10 52 10 l53
0 -53 -35 c-28 -20 -52 -39 -52 -44 0 -5 30 -17 67 -27 l67 -18 -62 -18 c-57
-17 -62 -21 -62 -47 0 -45 12 -94 20 -81 4 7 17 9 33 4 21 -5 27 -12 27 -34 0
-24 -6 -30 -36 -40 -30 -10 -35 -16 -30 -34 3 -11 6 -37 6 -56 l0 -35 67 3 68
3 -74 -73 c-83 -82 -88 -75 57 -80 68 -3 82 -1 82 12 0 13 -12 15 -72 12 l-73
-3 79 74 79 74 -54 6 c-30 4 -76 7 -102 7 -77 0 -60 27 51 79 51 25 91 49 89
54 -1 5 -45 24 -97 41 -64 21 -95 36 -95 46 0 10 31 25 95 46 52 17 88 34 80
37 -8 3 -46 15 -83 27 l-68 22 63 44 c35 25 65 49 66 54 2 6 -38 10 -102 10
l-106 0 0 -25z m173 -295 c16 0 -14 -20 -30 -20 -7 0 -13 7 -13 16 0 11 5 14
16 10 9 -3 21 -6 27 -6z"/>
<path d="M137 2628 c-4 -12 -7 -31 -7 -42 0 -15 3 -16 14 -7 11 10 33 10 95 0
45 -6 81 -16 81 -21 0 -5 4 -6 10 -3 6 3 10 23 10 43 0 25 -3 33 -9 23 -7 -11
-22 -12 -92 -1 -46 6 -87 16 -90 22 -3 5 -9 -1 -12 -14z"/>
<path d="M120 2507 c0 -25 2 -26 71 -29 l70 -3 -80 -66 c-44 -37 -77 -69 -74
-73 4 -3 29 -6 57 -7 28 0 72 -4 99 -8 l47 -8 0 31 c0 20 -3 26 -9 18 -5 -9
-26 -12 -66 -10 l-58 3 77 64 c52 44 73 67 64 72 -7 3 -49 10 -93 13 -44 4
-85 12 -92 18 -10 8 -13 4 -13 -15z"/>
<path d="M104 2264 c3 -9 6 -21 6 -27 0 -8 23 -11 75 -9 83 4 105 -5 105 -43
0 -35 -20 -44 -103 -47 -75 -1 -77 -2 -77 -26 0 -24 1 -25 74 -20 100 7 126
24 126 83 0 64 -30 85 -121 85 -39 0 -69 4 -69 10 0 6 -5 10 -11 10 -6 0 -8
-7 -5 -16z"/>
<path d="M195 1897 l-18 -53 28 -42 c15 -23 31 -42 36 -42 4 0 15 22 24 50
l16 49 -31 46 c-17 25 -32 45 -34 45 -1 0 -11 -24 -21 -53z"/>
<path d="M3316 1903 l-29 -45 17 -54 c9 -30 19 -54 20 -54 2 0 18 22 35 48
l31 49 -16 46 c-9 26 -19 49 -23 51 -4 3 -20 -16 -35 -41z"/>
<path d="M247 1608 c-59 -16 -77 -24 -73 -35 3 -8 6 -22 6 -31 0 -14 1 -14 13
0 10 12 114 48 140 48 13 0 7 -28 -9 -41 -13 -10 -19 -10 -36 0 -27 17 -35 6
-13 -19 23 -25 57 -26 79 -1 15 16 16 25 6 60 -6 23 -16 41 -23 40 -7 -1 -47
-10 -90 -21z"/>
<path d="M3177 1603 c-4 -3 -7 -20 -7 -38 0 -57 38 -71 97 -34 39 24 66 19 61
-13 -2 -14 -12 -24 -28 -28 l-25 -6 25 -7 c51 -14 71 69 24 100 -25 16 -28 16
-76 -11 -31 -18 -53 -25 -59 -19 -13 13 0 43 18 43 8 0 11 5 8 10 -7 11 -28
13 -38 3z"/>
<path d="M370 1498 c0 -19 -121 -64 -146 -54 -11 4 -15 2 -11 -8 3 -8 11 -33
17 -55 8 -32 16 -41 32 -41 20 0 20 1 5 18 -24 26 -21 41 9 52 31 12 47 4 41
-21 -3 -11 0 -19 7 -19 21 0 26 12 15 33 -12 22 1 37 35 37 14 0 17 -6 14 -25
-4 -19 -1 -25 13 -25 23 0 23 -4 3 56 -18 53 -34 78 -34 52z"/>
<path d="M3140 1470 c-13 -25 -13 -33 3 -27 7 2 39 -5 72 -18 54 -20 60 -25
60 -50 0 -44 -25 -53 -87 -31 -29 11 -59 23 -66 29 -14 11 -17 9 -26 -18 -5
-18 4 -23 69 -43 57 -17 80 -20 95 -12 47 25 55 97 14 129 -15 12 -31 21 -36
21 -5 0 -27 9 -49 19 -38 19 -40 19 -49 1z"/>
<path d="M420 1362 c0 -17 -127 -75 -147 -68 -17 7 -11 -17 21 -84 31 -61 78
-81 132 -54 51 25 62 61 41 128 -17 53 -46 102 -47 78z m30 -103 c0 -31 -12
-49 -41 -64 -37 -20 -62 -19 -82 3 -32 36 -25 50 38 81 54 26 61 27 73 13 6
-9 12 -24 12 -33z"/>
<path d="M3062 1275 c-17 -36 -15 -49 9 -71 19 -17 22 -18 68 -1 66 23 73 22
69 -10 -2 -22 -8 -28 -25 -27 -29 1 -30 -13 -1 -22 28 -8 48 18 48 63 0 47
-36 63 -86 40 -40 -20 -60 -21 -69 -7 -10 16 16 42 33 35 12 -4 13 -3 2 10
-18 22 -35 18 -48 -10z"/>
<path d="M3002 1145 c-15 -33 -15 -36 2 -29 15 6 136 -51 147 -69 4 -5 15 5
24 23 16 31 16 33 0 26 -11 -4 -43 8 -87 34 -38 22 -71 40 -72 40 -2 0 -8 -11
-14 -25z"/>
<path d="M446 1124 c-38 -19 -75 -33 -82 -30 -19 7 -18 3 11 -54 24 -47 46
-62 59 -41 3 5 -3 11 -14 14 -29 7 -25 42 7 56 21 10 28 9 34 -1 5 -7 7 -19 4
-27 -4 -9 0 -11 11 -7 8 3 18 6 20 6 2 0 -3 11 -12 25 -15 24 -15 25 11 37 22
10 28 9 36 -3 5 -8 7 -20 4 -26 -5 -15 11 -17 20 -3 5 8 -31 92 -38 89 -1 -1
-33 -16 -71 -35z"/>
<path d="M2970 1080 c-8 -15 -7 -19 2 -15 7 2 30 -19 51 -47 29 -37 34 -49 20
-45 -10 3 -37 9 -60 12 -24 4 -43 11 -43 16 0 5 -4 9 -8 9 -7 0 -20 -19 -40
-63 -3 -5 4 -4 14 1 13 7 46 6 104 -4 47 -7 86 -14 88 -14 1 0 2 4 2 10 0 12
-103 159 -112 160 -4 0 -12 -9 -18 -20z"/>
<path d="M537 1002 c-10 -10 -17 -30 -17 -43 0 -14 -6 -34 -14 -45 -14 -18
-16 -18 -33 -1 -15 14 -16 21 -5 37 14 22 9 25 -18 10 -13 -7 -17 -16 -13 -28
27 -77 123 -64 123 18 0 35 15 54 35 46 12 -4 15 -13 11 -31 -7 -27 5 -33 23
-11 8 10 6 19 -10 40 -24 30 -59 34 -82 8z"/>
<path d="M690 861 c0 -14 -119 -103 -130 -96 -15 10 -12 2 15 -35 20 -27 25
-30 25 -14 0 18 99 104 120 104 13 0 12 11 -4 33 -14 18 -26 22 -26 8z"/>
<path d="M2807 843 c-3 -3 14 -39 39 -80 24 -41 44 -79 44 -84 0 -5 -19 -9
-42 -9 -39 0 -45 4 -58 33 -21 46 -50 46 -99 1 -42 -37 -53 -58 -25 -47 22 8
124 -94 117 -116 -4 -9 7 -3 25 13 33 31 41 49 20 41 -16 -6 -54 22 -44 32 3
4 27 6 51 4 39 -2 48 1 74 30 27 29 34 58 11 44 -5 -3 -14 3 -19 14 -8 15 -7
24 7 40 15 19 19 20 44 7 24 -12 28 -12 41 2 27 33 31 45 11 38 -11 -3 -58 5
-106 18 -47 13 -89 22 -91 19z m83 -63 c0 -5 -4 -10 -9 -10 -6 0 -13 5 -16 10
-3 6 1 10 9 10 9 0 16 -4 16 -10z m-121 -98 c17 -32 -8 -46 -36 -20 -13 12
-23 25 -23 30 0 16 50 8 59 -10z"/>
<path d="M697 724 c-35 -33 -63 -51 -70 -47 -7 4 -5 -4 4 -17 17 -26 42 -40
34 -18 -3 7 12 30 32 50 l38 37 -3 -89 c-3 -54 0 -90 6 -90 12 0 34 25 27 32
-3 2 1 5 9 5 8 0 34 17 59 39 33 29 42 42 35 52 -14 16 -28 15 -28 -2 0 -7
-16 -26 -36 -41 l-36 -27 4 86 c2 53 -1 86 -7 86 -5 -1 -36 -25 -68 -56z"/>
<path d="M2588 605 c-35 -33 -50 -54 -29 -40 10 5 102 -94 111 -120 4 -10 16
-4 43 22 27 24 36 40 32 51 -6 15 -8 14 -16 -5 -10 -28 -30 -29 -53 -4 -19 21
-14 41 10 41 17 0 18 12 3 27 -9 9 -16 6 -30 -10 -19 -22 -19 -22 -34 -2 -19
24 -15 39 14 43 18 3 20 6 10 18 -16 19 -19 18 -61 -21z"/>
<path d="M930 585 c-10 -12 -9 -15 7 -15 41 0 44 -21 10 -68 -18 -24 -42 -52
-54 -62 l-22 -17 31 -23 c20 -15 29 -18 26 -9 -3 8 8 33 24 54 16 22 35 48 42
58 16 22 46 12 46 -15 0 -17 2 -18 15 -8 9 7 14 16 13 20 -3 9 -114 100 -121
100 -3 0 -10 -7 -17 -15z"/>
<path d="M2425 482 c-41 -25 -55 -38 -42 -40 19 -4 97 -112 97 -136 0 -25 97
44 116 82 19 40 12 75 -21 108 -35 35 -78 31 -150 -14z m112 -7 c11 -8 26 -28
31 -44 9 -25 7 -34 -9 -56 -11 -14 -27 -25 -34 -25 -14 0 -85 95 -85 113 0 9
38 25 60 26 9 1 25 -6 37 -14z"/>
<path d="M1083 477 c0 -22 -74 -138 -84 -132 -5 4 -9 3 -9 -2 0 -4 21 -21 46
-36 43 -26 48 -27 63 -13 14 15 13 16 -11 16 -34 0 -41 12 -27 44 14 29 34 34
47 10 7 -13 10 -13 20 -1 10 11 7 16 -13 25 -25 11 -25 13 -10 36 17 26 45 25
45 0 0 -19 16 -18 24 1 3 10 -9 23 -38 40 -49 29 -53 30 -53 12z"/>
<path d="M2310 415 c-14 -8 -19 -14 -13 -15 16 0 86 -137 78 -150 -9 -14 2
-12 38 7 21 11 27 18 17 20 -20 5 -83 120 -76 139 7 18 -12 17 -44 -1z"/>
<path d="M1199 412 c11 -8 8 -22 -19 -81 -21 -44 -39 -71 -49 -71 -9 -1 0 -9
19 -20 46 -25 51 -25 45 3 -3 12 -1 29 5 37 9 13 11 13 20 0 5 -8 10 -24 10
-36 0 -11 6 -28 13 -37 13 -19 127 -61 136 -51 3 4 1 9 -6 11 -12 4 -2 58 11
58 5 0 16 -20 25 -45 15 -41 21 -46 61 -56 40 -10 83 -7 52 4 -21 7 6 42 32
42 24 0 36 -17 36 -50 0 -12 9 -19 30 -22 32 -5 50 6 26 15 -8 3 -21 40 -31
85 -17 80 -33 116 -41 97 -15 -33 -91 -149 -100 -152 -6 -2 -18 16 -28 39 -16
42 -16 43 4 57 28 19 27 66 -2 85 -24 15 -112 34 -91 19 9 -7 7 -26 -9 -81
-18 -63 -24 -73 -42 -70 -15 2 -25 16 -35 47 -13 42 -13 44 14 65 35 28 31 64
-10 87 -33 19 -100 37 -76 21z m66 -43 c13 -19 -4 -59 -25 -59 -23 0 -25 9 -8
45 12 27 23 32 33 14z m165 -84 c0 -25 -25 -52 -34 -37 -3 6 -3 24 0 40 7 36
34 33 34 -3z m138 -94 c-15 -5 -19 4 -11 24 6 18 7 18 13 -1 4 -10 3 -21 -2
-23z"/>
<path d="M2206 367 c-12 -9 -17 -23 -14 -42 2 -25 12 -34 51 -53 48 -23 61
-47 31 -59 -9 -3 -25 -1 -35 6 -22 13 -24 8 -8 -20 18 -35 89 2 89 47 0 25
-43 64 -70 64 -22 0 -44 25 -35 40 9 14 42 13 48 -2 3 -7 6 -3 6 10 1 17 -5
22 -22 22 -13 0 -31 -6 -41 -13z"/>
<path d="M1930 293 c-30 -6 -52 -23 -28 -23 11 0 18 -19 28 -74 7 -41 9 -79 5
-86 -8 -12 42 -7 102 12 39 11 73 51 73 85 0 31 -25 79 -45 87 -18 7 -95 6
-135 -1z m107 -28 c24 -17 38 -64 28 -94 -7 -22 -62 -48 -74 -35 -9 9 -31 103
-31 129 0 20 49 20 77 0z"/>
<path d="M1795 273 c-4 -10 -18 -49 -32 -88 -14 -38 -33 -75 -42 -82 -14 -11
-10 -12 21 -13 34 0 37 2 35 27 -2 21 4 28 26 34 25 7 28 5 34 -22 5 -26 10
-29 41 -29 31 0 33 2 20 13 -9 6 -30 46 -48 87 -36 87 -45 98 -55 73z m11 -90
c-10 -10 -19 5 -10 18 6 11 8 11 12 0 2 -7 1 -15 -2 -18z"/>
<path d="M11100 3858 c-6 -13 -72 -176 -148 -364 -75 -187 -144 -351 -152
-363 -10 -15 -30 -26 -55 -30 -21 -3 -40 -12 -43 -19 -3 -9 28 -12 132 -12
130 0 182 11 112 24 -19 4 -36 13 -39 20 -5 11 24 104 62 199 l11 28 117 -3
117 -3 43 -114 c38 -99 42 -116 28 -124 -8 -4 -13 -12 -10 -18 8 -12 285 -12
285 0 0 11 -25 21 -54 21 -50 0 -66 31 -225 429 -145 365 -156 385 -181 329z
m50 -347 l39 -111 -93 0 -94 0 46 125 c30 82 49 120 54 111 4 -8 26 -64 48
-125z"/>
<path d="M5285 3858 c-2 -7 -6 -172 -10 -367 -3 -195 -10 -363 -16 -372 -5
-10 -25 -21 -44 -25 -75 -14 -28 -24 110 -24 141 0 187 11 105 25 -23 4 -44
14 -50 25 -13 25 -19 93 -25 322 l-5 196 67 -71 c184 -197 500 -507 515 -507
15 0 18 9 19 53 13 673 13 688 33 703 11 8 30 14 43 14 13 0 23 5 23 10 0 6
-53 10 -140 10 -87 0 -140 -4 -140 -10 0 -5 15 -10 33 -10 67 0 69 -9 75 -295
l5 -256 -189 193 c-104 106 -234 239 -289 296 -54 56 -103 102 -107 102 -5 0
-10 -6 -13 -12z"/>
<path d="M8989 3855 c-52 -17 -124 -86 -135 -130 -3 -14 -4 -50 -2 -80 6 -76
57 -146 169 -235 63 -51 94 -83 109 -116 37 -75 15 -140 -57 -170 -97 -41
-190 12 -208 118 -12 69 -30 38 -33 -55 -3 -99 -8 -103 -76 -63 -41 24 -74 59
-205 220 l-72 88 49 52 c122 129 106 296 -34 350 -41 15 -80 18 -249 20 -126
0 -201 -3 -203 -9 -2 -5 13 -13 33 -16 20 -3 41 -11 48 -18 14 -14 18 -636 4
-683 -5 -18 -14 -28 -26 -28 -26 0 -51 -10 -51 -21 0 -5 74 -9 165 -9 101 0
165 4 165 10 0 9 -11 12 -76 25 -28 6 -34 38 -34 176 l0 109 50 0 50 0 48 -67
c97 -137 162 -213 199 -232 30 -14 71 -20 188 -26 243 -12 270 -10 333 22 31
15 70 45 86 66 26 32 31 49 34 108 6 99 -13 141 -96 220 -37 35 -89 81 -116
103 -26 21 -56 53 -67 70 -59 97 36 194 148 151 47 -18 83 -62 83 -102 0 -13
6 -23 14 -23 11 0 15 19 18 81 3 72 1 82 -16 91 -33 18 -186 20 -237 3z m-581
-82 c85 -61 97 -231 21 -302 -17 -16 -35 -21 -75 -21 -88 0 -84 -9 -84 174 0
90 3 166 8 170 13 14 103 -1 130 -21z"/>
<path d="M4280 3852 c-23 -8 -7 -22 24 -22 62 0 63 -3 69 -282 6 -288 14 -329
79 -403 52 -59 126 -87 233 -88 100 -1 168 20 228 73 86 76 106 171 107 512 0
155 1 168 19 178 11 5 29 10 40 10 12 0 21 5 21 10 0 6 -53 10 -140 10 -87 0
-140 -4 -140 -10 0 -5 13 -10 28 -10 16 0 37 -6 48 -14 18 -14 19 -29 19 -273
0 -278 -4 -307 -53 -365 -35 -41 -79 -58 -150 -58 -82 0 -139 37 -173 111 -23
53 -24 60 -24 312 0 244 1 259 19 273 11 8 30 14 43 14 13 0 23 4 23 10 0 8
-297 20 -320 12z"/>
<path d="M6197 3853 c-24 -6 -11 -23 18 -23 55 0 55 -3 55 -368 0 -185 -4
-342 -8 -348 -4 -6 -22 -15 -39 -19 -74 -16 -25 -25 132 -25 91 0 165 4 165 9
0 10 -34 21 -68 21 -15 0 -26 9 -32 26 -6 14 -10 163 -10 349 0 351 1 355 55
355 32 0 40 16 12 24 -25 7 -253 6 -280 -1z"/>
<path d="M7268 3852 c-82 -1 -148 -7 -148 -12 0 -5 15 -10 32 -12 22 -2 34 -9
36 -21 5 -24 -199 -540 -209 -530 -3 4 -50 124 -104 266 -102 273 -104 287
-49 287 13 0 24 5 24 10 0 6 -64 10 -171 10 -161 0 -209 -9 -120 -24 25 -4 47
-15 59 -30 10 -14 83 -181 161 -373 79 -191 149 -355 157 -363 9 -9 17 -11 24
-4 8 8 88 186 286 639 45 103 63 125 105 134 40 8 106 -1 122 -18 14 -14 17
-637 4 -683 -5 -21 -15 -29 -42 -34 -87 -16 -17 -24 209 -24 277 0 251 -9 262
96 6 52 4 66 -6 62 -7 -2 -18 -19 -24 -38 -15 -45 -46 -60 -131 -60 -114 0
-115 1 -115 182 l0 150 86 -3 c93 -4 114 -17 114 -67 0 -14 5 -22 13 -20 11 4
32 166 22 176 -2 2 -14 -3 -27 -12 -17 -12 -46 -16 -115 -16 l-93 0 0 135 0
135 85 0 c78 0 88 -2 110 -25 14 -13 25 -33 25 -45 0 -40 19 -19 25 28 3 26 7
61 9 77 l4 30 -237 0 c-130 0 -302 -1 -383 -3z"/>
<path d="M9427 3853 c-24 -6 -11 -23 18 -23 54 0 55 -3 55 -361 0 -204 -4
-338 -10 -349 -6 -11 -26 -22 -45 -26 -19 -3 -32 -10 -29 -15 7 -12 334 -12
334 0 0 10 -34 21 -67 21 -12 0 -27 9 -33 19 -6 13 -10 141 -10 350 0 358 1
361 55 361 32 0 40 16 12 24 -25 7 -253 6 -280 -1z"/>
<path d="M9864 3849 c-3 -5 -4 -9 -2 -10 93 -24 92 -23 101 -59 11 -41 4 -638
-7 -662 -5 -10 -16 -18 -26 -18 -24 0 -50 -10 -50 -20 0 -4 100 -11 223 -15
252 -8 313 1 419 57 208 111 261 420 104 604 -41 48 -130 97 -206 114 -66 15
-547 22 -556 9z m412 -60 c130 -24 234 -105 271 -212 27 -78 24 -235 -6 -302
-46 -102 -118 -146 -253 -153 -100 -5 -130 0 -158 28 -19 19 -20 35 -20 329 0
238 3 310 13 314 22 9 92 7 153 -4z"/>
<path d="M11556 3852 c-13 -13 -4 -20 35 -25 23 -3 46 -11 50 -19 12 -18 11
-665 -1 -687 -5 -10 -23 -21 -40 -24 -74 -15 -14 -25 193 -32 245 -7 309 0
407 50 221 112 275 450 100 625 -93 93 -167 111 -487 115 -138 2 -254 1 -257
-3z m405 -62 c78 -15 172 -64 214 -112 55 -64 78 -137 79 -243 0 -162 -50
-250 -170 -295 -49 -18 -75 -21 -151 -18 -146 5 -137 -17 -138 353 0 260 2
307 15 315 20 13 84 12 151 0z"/>
<path d="M5565 2637 c-9 -14 -79 -181 -155 -372 -77 -191 -147 -356 -156 -366
-10 -11 -35 -22 -56 -25 -22 -4 -37 -12 -35 -18 5 -16 269 -15 274 1 3 7 -9
13 -29 15 -29 3 -33 7 -36 33 -1 17 12 68 31 115 l33 85 119 3 120 3 43 -116
c42 -111 43 -117 26 -130 -17 -12 -16 -14 16 -20 60 -11 253 -2 258 13 2 7 -6
12 -22 12 -38 0 -69 18 -93 53 -12 18 -83 185 -158 372 -75 187 -142 346 -150
354 -11 11 -16 9 -30 -12z m42 -344 c23 -64 41 -118 39 -120 -2 -2 -44 -2 -94
-1 l-90 3 46 123 c25 67 47 120 50 117 3 -3 25 -58 49 -122z"/>
<path d="M9497 2639 c-9 -13 -77 -178 -152 -366 -75 -189 -146 -354 -157 -368
-12 -16 -34 -27 -59 -31 -23 -4 -38 -11 -36 -18 5 -16 269 -15 274 1 3 7 -9
13 -29 15 -46 4 -47 35 -5 144 l34 89 120 3 121 3 42 -117 c35 -94 40 -118 29
-124 -29 -18 7 -25 133 -25 96 0 132 3 135 13 3 8 -6 12 -25 12 -35 0 -77 30
-99 73 -9 18 -76 180 -150 362 -73 181 -140 336 -147 343 -12 12 -16 11 -29
-9z m42 -346 c23 -62 41 -115 41 -118 0 -8 -180 -6 -180 3 -1 20 85 241 91
235 4 -5 25 -59 48 -120z"/>
<path d="M4407 2643 c-4 -3 -7 -81 -7 -172 0 -91 -3 -258 -7 -369 -7 -222 -10
-232 -65 -232 -19 0 -28 -4 -25 -12 5 -18 279 -18 285 0 2 8 -7 12 -27 12 -71
0 -78 28 -84 341 l-5 197 289 -292 c222 -225 290 -288 300 -279 8 8 14 114 19
370 4 197 11 366 15 376 4 9 15 17 25 17 25 0 50 10 50 21 0 5 -63 9 -140 9
-77 0 -140 -4 -140 -9 0 -11 25 -21 55 -21 47 0 50 -16 55 -290 l5 -256 -220
225 c-121 125 -251 259 -289 299 -69 72 -77 78 -89 65z"/>
<path d="M6364 2641 c-109 -18 -183 -54 -251 -123 -135 -139 -145 -372 -23
-526 76 -97 198 -150 364 -159 111 -6 209 8 237 33 15 14 39 110 39 157 0 29
-28 18 -35 -13 -9 -42 -58 -87 -108 -101 -23 -6 -76 -9 -117 -7 -126 7 -221
74 -279 197 -23 50 -26 68 -26 172 0 109 2 119 30 174 38 74 83 110 165 131
152 39 309 -21 326 -124 4 -26 12 -42 20 -42 11 0 14 20 16 80 1 44 2 90 2
102 1 20 -6 24 -64 35 -92 16 -236 23 -296 14z"/>
<path d="M7610 2639 c-73 -14 -163 -64 -214 -119 -150 -161 -147 -420 6 -573
83 -82 172 -117 303 -117 134 0 235 41 316 127 182 193 147 519 -70 636 -89
49 -229 68 -341 46z m197 -80 c54 -26 108 -87 142 -158 24 -52 26 -66 26 -186
0 -115 -3 -136 -24 -182 -44 -99 -132 -152 -233 -140 -109 13 -189 75 -242
186 -30 63 -31 72 -31 191 0 109 3 131 23 175 36 77 80 116 157 136 45 12 134
1 182 -22z"/>
<path d="M8336 2634 c-3 -9 -6 -116 -6 -238 0 -313 -10 -494 -27 -512 -8 -8
-28 -14 -45 -14 -19 0 -28 -4 -25 -12 5 -18 279 -17 285 0 2 8 -8 12 -27 12
-70 0 -78 36 -83 371 l-3 165 274 -278 c264 -269 306 -307 319 -293 3 3 9 170
13 371 5 240 11 370 18 378 7 8 25 16 41 20 17 3 30 10 30 16 0 6 -51 10 -140
10 -77 0 -140 -4 -140 -9 0 -11 25 -21 55 -21 47 0 50 -16 56 -289 3 -141 5
-257 5 -257 -1 -1 -131 133 -291 297 -159 165 -293 299 -296 299 -4 0 -10 -7
-13 -16z"/>
<path d="M6856 2621 c-7 -10 16 -21 44 -21 11 0 24 -9 30 -19 11 -21 14 -638
4 -679 -4 -13 -17 -24 -33 -28 -92 -20 -62 -27 121 -28 118 0 163 3 166 12 2
8 -9 12 -32 12 -23 0 -43 7 -56 20 -20 20 -20 31 -18 357 3 365 0 345 61 358
15 3 25 10 22 15 -8 13 -302 13 -309 1z"/>
<path d="M9950 2621 c0 -12 25 -21 56 -21 42 0 46 -30 42 -376 -3 -350 -4
-354 -60 -354 -17 0 -28 -5 -26 -11 4 -13 486 -23 505 -11 13 8 33 94 33 138
0 15 -6 24 -15 24 -8 0 -15 -7 -15 -15 0 -27 -22 -63 -47 -74 -13 -6 -62 -11
-108 -11 -133 0 -125 -23 -125 353 0 171 4 317 8 324 4 6 23 13 41 15 19 2 36
9 39 16 3 9 -34 12 -162 12 -91 0 -166 -4 -166 -9z"/>
<path d="M10928 1575 c-54 -42 -98 -80 -98 -85 0 -13 -2 -14 81 21 41 16 95
33 122 36 26 3 47 10 47 15 0 14 -40 88 -48 88 -4 0 -51 -34 -104 -75z"/>
<path d="M9675 1408 c-3 -13 -30 -182 -59 -376 -30 -193 -59 -359 -66 -366 -6
-8 -23 -16 -36 -18 -14 -2 -24 -7 -24 -13 0 -6 50 -11 125 -13 107 -2 125 0
125 13 0 10 -10 15 -34 15 -59 0 -60 6 -30 242 15 117 30 216 33 220 3 3 31
-46 60 -110 83 -177 192 -382 203 -382 8 0 165 314 241 480 l20 45 34 -235
c25 -178 31 -239 23 -253 -6 -11 -8 -22 -5 -25 4 -4 110 -9 236 -10 200 -3
229 -2 229 11 0 10 -11 17 -32 19 -46 4 -46 23 -3 139 l38 99 117 0 118 0 43
-117 c30 -81 40 -118 31 -121 -7 -2 -12 -10 -12 -18 0 -12 44 -14 275 -14 233
0 275 2 275 14 0 10 -13 16 -37 18 -59 5 -63 22 -70 294 l-6 237 285 -288
c196 -199 289 -287 300 -283 13 5 16 58 21 367 4 213 11 370 17 381 6 11 23
20 43 22 17 2 31 8 30 13 -2 6 -56 10 -138 10 -83 0 -135 -4 -135 -10 -1 -5
16 -12 37 -15 28 -4 41 -12 49 -30 7 -15 14 -122 17 -273 l6 -248 -227 233
c-125 128 -254 261 -286 296 -33 34 -65 62 -72 62 -20 0 -23 -58 -26 -411 -2
-259 -6 -329 -17 -342 -10 -12 -30 -17 -70 -17 -95 0 -93 -3 -271 445 -68 171
-127 316 -133 323 -5 6 -15 12 -22 12 -8 0 -68 -139 -146 -332 -153 -386 -171
-425 -204 -440 -36 -16 -90 -2 -104 28 -6 14 -34 179 -62 367 -55 377 -55 377
-73 377 -7 0 -77 -135 -156 -300 -79 -165 -145 -300 -147 -300 -4 0 -104 204
-249 508 -45 92 -68 113 -79 70z m1285 -450 c0 -4 -40 -8 -90 -8 -49 0 -90 2
-90 5 0 4 47 133 82 225 9 22 15 12 54 -94 24 -66 44 -123 44 -128z"/>
<path d="M5522 1410 c-146 -3 -243 -9 -245 -15 -1 -5 14 -12 33 -15 20 -4 41
-10 48 -14 15 -9 17 -651 2 -690 -7 -20 -16 -26 -40 -26 -20 0 -30 -5 -30 -15
0 -13 33 -15 240 -15 274 0 253 -8 264 98 6 51 4 62 -8 62 -8 0 -17 -13 -21
-29 -11 -53 -37 -66 -132 -66 -120 0 -123 4 -123 186 l0 139 81 0 c96 0 116
-9 125 -55 9 -48 22 -44 28 8 17 142 15 154 -28 122 -14 -11 -47 -15 -113 -15
l-93 0 0 141 0 141 88 -7 c97 -7 129 -22 134 -60 6 -47 23 -31 31 30 14 110
37 101 -241 95z"/>
<path d="M6205 1410 c-1 -3 -8 -36 -15 -73 -13 -69 -7 -97 14 -63 37 61 37 61
155 64 l111 4 0 -320 c0 -178 -4 -332 -9 -346 -8 -18 -19 -25 -43 -28 -18 -2
-32 -7 -31 -13 2 -6 69 -11 168 -13 142 -2 165 0 165 13 0 11 -11 15 -37 15
-71 0 -68 -17 -71 355 l-3 335 86 0 c106 0 152 -17 157 -56 2 -15 9 -29 16
-32 9 -3 12 17 12 80 l0 83 -336 0 c-185 0 -337 -2 -339 -5z"/>
<path d="M8131 1404 c-203 -55 -321 -235 -291 -447 24 -167 137 -286 315 -332
71 -18 271 -19 330 -1 46 13 61 44 67 136 3 59 -16 81 -27 30 -9 -43 -49 -86
-93 -101 -62 -21 -179 -16 -239 10 -63 28 -145 111 -176 178 -19 41 -22 66
-22 168 0 135 15 183 74 243 52 52 87 65 182 70 156 8 250 -41 265 -139 12
-71 29 -38 35 67 3 54 4 101 2 103 -2 3 -38 10 -81 17 -103 17 -274 16 -341
-2z"/>
<path d="M4317 1404 c-12 -12 4 -24 32 -24 15 0 36 -6 47 -14 18 -14 19 -29
19 -349 0 -364 0 -367 -56 -367 -18 0 -29 -5 -29 -14 0 -17 409 -32 485 -17
157 30 253 100 310 224 74 161 49 334 -64 448 -63 63 -129 93 -239 109 -74 11
-495 14 -505 4z m490 -86 c74 -30 111 -59 151 -118 44 -65 56 -114 56 -215 0
-200 -87 -301 -271 -313 -88 -6 -138 3 -164 29 -18 18 -19 35 -19 327 0 170 3
312 8 316 15 17 176 -1 239 -26z"/>
<path d="M6927 1404 c-12 -12 4 -24 31 -24 57 0 57 2 63 -277 7 -303 15 -339
89 -414 64 -64 123 -83 248 -77 141 6 217 50 269 156 28 57 28 57 33 318 6
280 7 290 57 296 15 2 28 9 31 16 3 9 -29 12 -137 12 -119 0 -141 -2 -141 -15
0 -10 10 -15 34 -15 57 0 61 -11 65 -231 5 -328 -17 -417 -116 -461 -61 -27
-147 -22 -197 12 -80 56 -99 145 -94 443 3 220 6 233 56 239 15 2 27 8 27 13
0 11 -307 20 -318 9z"/>
<path d="M8627 1404 c-13 -13 5 -24 37 -24 59 0 60 -6 66 -299 6 -286 9 -302
64 -374 14 -19 49 -46 78 -62 44 -24 66 -29 148 -33 129 -6 184 12 256 82 79
77 86 108 92 406 2 135 8 253 13 262 5 9 24 18 42 20 17 2 31 8 30 13 -2 6
-56 10 -138 10 -82 0 -136 -4 -136 -10 -1 -5 15 -13 36 -16 20 -3 41 -12 46
-20 13 -20 11 -478 -2 -539 -25 -119 -152 -183 -266 -135 -48 20 -70 41 -97
90 -20 38 -21 57 -24 308 -4 290 -3 297 49 297 19 0 29 5 29 15 0 13 -24 15
-158 15 -87 0 -162 -3 -165 -6z"/>
  </g>
</svg>